<svg width="20" height="20" fill="none" xmlns="http://www.w3.org/2000/svg"><path fill-rule="evenodd" clip-rule="evenodd" d="M4 .4a1.2 1.2 0 011.2 1.2v.084A9.556 9.556 0 0110 .4c1.75 0 3.39.468 4.802 1.285L14.8 1.6A1.2 1.2 0 0116 .4h2.4a1.2 1.2 0 011.2 1.2V4a1.2 1.2 0 01-1.2 1.2h-.084A9.556 9.556 0 0119.6 10 9.6 9.6 0 111.685 5.2H1.6A1.2 1.2 0 01.4 4V1.6A1.2 1.2 0 011.6.4H4zm6 2.4a7.2 7.2 0 100 14.4 7.2 7.2 0 000-14.4zm0 2.4a1.2 1.2 0 011.192 1.06l.008.14v3.103l2.049 2.048a1.2 1.2 0 01-1.584 1.797l-.113-.1-2.4-2.4a1.2 1.2 0 01-.341-.69L8.8 10V6.4A1.2 1.2 0 0110 5.2z" fill="#52616B"/></svg>