<svg width="16" height="16" fill="none" xmlns="http://www.w3.org/2000/svg"><path fill-rule="evenodd" clip-rule="evenodd" d="M13 0a1 1 0 011 .993l-.006.117-.1.889L15 2l.117.007a1 1 0 01.876.876L16 3v2l-.005.217a5.003 5.003 0 01-3.787 4.636 5.933 5.933 0 01-1.98 1.705l-.229.114v2.327L13 14a1 1 0 110 2H3a1 1 0 110-2l2.999-.001v-2.327l-.217-.11a5.943 5.943 0 01-1.991-1.71A5 5 0 01.005 5.217L0 5V3a1 1 0 01.883-.993L1 2l1.105-.001-.099-.889A1 1 0 012.883.007L3 0h10zM4 4H2v1a3 3 0 002.824 2.995L5 8V5a1 1 0 00-.883-.993L4 4zm10 0h-2l-.117.007a1 1 0 00-.876.876L11 5v3l.176-.005a3 3 0 002.819-2.819L14 5V4z" fill="#627698"/></svg>