<svg width="21" height="18" fill="none" xmlns="http://www.w3.org/2000/svg"><path d="M0 3.646A3.646 3.646 0 013.646 0H16.77a3.646 3.646 0 013.646 3.646v10.208A3.646 3.646 0 0116.77 17.5H3.646A3.646 3.646 0 010 13.854V3.646zm5.91 3.217c.7-.073 1.243.052 1.437.15A.73.73 0 108 5.71c-.512-.256-1.353-.389-2.241-.296-1.4.146-2.841 1.362-2.841 3.35 0 2.02 1.537 3.354 3.354 3.354.846 0 1.604-.398 2.037-.806.382-.362.442-.843.442-1.142V8.763a.73.73 0 00-.73-.729H6.845a.73.73 0 100 1.458h.448v.675c0 .036-.003.07-.01.106-.283.239-.64.374-1.011.385-1.066 0-1.896-.736-1.896-1.896 0-1.192.827-1.825 1.534-1.9zm5.757-.723a.73.73 0 00-1.459 0v5.25a.73.73 0 001.459 0V6.14zm2.187-.73a.73.73 0 00-.729.73v5.25a.729.729 0 101.458 0V9.486l1.463-.008a.73.73 0 00-.009-1.459l-1.454.01V6.868h2.188a.73.73 0 100-1.458h-2.917v.001z" fill="#52616B"/></svg>