<svg width="262" height="110" fill="none" xmlns="http://www.w3.org/2000/svg"><g clip-path="url(#clip0_1200_8056)"><mask id="a" style="mask-type:alpha" maskUnits="userSpaceOnUse" x="-72" y="-29" width="334" height="177"><g opacity=".8" fill="#1AFFD8"><path opacity=".8" d="M187.691 63.764l14.652 15.86c.598-.3 1.346-.3 1.794.299.598.599.598 1.646 0 2.244-.598.599-1.495.599-2.093 0-.448-.449-.598-1.346-.299-1.945l-14.354-15.56h-50.686L118.913 45.51c-.598.3-1.346.3-1.795-.299-.598-.598-.598-1.646 0-2.244.599-.599 1.496-.599 2.094 0 .448.449.598 1.346.299 1.945l17.493 18.852h50.687zm32.595-38.751h-7.327l-7.177 7.78h-16.297l-8.223-8.828h-20.335l-14.204 15.262h-21.979c-.149.598-.747 1.197-1.346 1.197-.747 0-1.495-.749-1.495-1.646 0-.898.598-1.646 1.495-1.646.748 0 1.197.449 1.346 1.197h21.531l14.204-15.411h21.082l8.223 8.828h15.699l7.177-7.78h7.327l13.456-14.663c-.299-.599-.299-1.347.299-1.945.598-.599 1.495-.599 2.093 0 .598.598.598 1.645 0 2.244-.448.449-1.196.598-1.794.3l-13.755 15.11z"/><path opacity=".8" d="M158.834 54.488L169.3 43.117h12.709l9.868 10.623h14.354l7.326 7.93c.598-.3 1.346-.3 1.794.299.598.598.598 1.646 0 2.244-.598.599-1.495.599-2.093 0-.449-.449-.598-1.346-.299-1.945l-7.177-7.63h-14.354l-9.868-10.624h-12.111l-10.466 11.371h-19.586l-7.775-8.378c-.598.299-1.346.299-1.795-.3-.598-.598-.598-1.645 0-2.244.599-.598 1.496-.598 2.094 0 .448.45.598 1.347.299 1.945l7.625 8.23h18.989v-.15z"/><path opacity=".8" d="M178.72 59.724c-.15.599-.748 1.197-1.346 1.197-.748 0-1.495-.748-1.495-1.646 0-.898.598-1.646 1.495-1.646.598 0 1.196.45 1.346 1.197h21.53l22.727 25.286c.598-.3 1.345-.3 1.794.3.598.598.598 1.645 0 2.244-.598.598-1.495.598-2.093 0-.449-.45-.598-1.347-.299-1.946l-22.428-24.836H178.72v-.15zm33.342-12.717h-15.4l-7.476-8.08H163.02l-6.279 6.733h-15.999c-.149.599-.747 1.197-1.345 1.197-.748 0-1.496-.748-1.496-1.645 0-.898.598-1.646 1.496-1.646.747 0 1.196.449 1.345 1.197h15.55l6.28-6.733h26.913l7.476 8.08h15.4l5.532 6.732c.598-.3 1.346-.3 1.794.3.598.598.598 1.645 0 2.244-.598.598-1.495.598-2.093 0-.449-.45-.598-1.347-.299-1.945l-5.233-6.434zm-55.471-8.229c-.598.598-1.496.598-2.094 0-.598-.599-.598-1.646 0-2.244.449-.45 1.197-.599 1.795-.3l6.13-6.583h14.204c.149-.598.747-1.197 1.346-1.197.747 0 1.495.748 1.495 1.646 0 .898-.598 1.646-1.495 1.646-.748 0-1.197-.45-1.346-1.197h-13.905l-5.831 6.284c.149.598.149 1.496-.299 1.945z"/></g><g opacity=".8"><path opacity=".6" d="M-53.48 18.28l6.279 6.733h30.502l8.073-8.828H9.615l3.29 3.591h29.754l15.55-16.757 45.004-.15 9.42 10.773h10.765L144.779-9.55h11.961l15.4-16.459c.599.3 1.346.3 1.795-.299.598-.598.598-1.646 0-2.244-.598-.599-1.496-.599-2.094 0-.448.449-.598 1.346-.299 1.945l-15.25 16.308H144.33l-21.381 23.341h-10.017l-9.42-10.772-45.602.15-15.55 16.607H13.204l-3.29-3.591H-8.924l-8.074 8.828h-29.903l-6.28-6.883h-15.55c-.149-.598-.747-1.197-1.345-1.197-.748 0-1.495.748-1.495 1.646 0 .898.598 1.646 1.495 1.646.748 0 1.196-.45 1.346-1.197h15.25z" fill="#0FF"/></g><g opacity=".8"><path opacity=".6" d="M215.799 6.01c-.747 0-1.196.45-1.345 1.198h-72.366L128.332 22.17h-15.699L101.867 10.5l-44.406.149-11.214 12.12H-5.187l-6.578 7.33h-24.372c-.15-.598-.747-1.197-1.345-1.197-.748 0-1.495.749-1.495 1.646 0 .898.597 1.646 1.495 1.646.598 0 1.196-.449 1.345-1.197h24.67l6.729-7.181h51.135l11.214-12.12 43.808-.15 10.765 11.671h16.298l13.755-14.962h72.067c.15.599.748 1.197 1.346 1.197.748 0 1.495-.748 1.495-1.646 0-1.047-.598-1.795-1.346-1.795z" fill="#0FF"/></g><g opacity=".8"><path opacity=".6" d="M213.557 10.65c-.748 0-1.196.448-1.346 1.196h-54.275l-18.091 19.6h-23.773l-7.775 8.38h-5.831l-6.58-7.033H69.274L52.976 50.15H26.958L16.193 38.48H-7.878c-.15-.599-.748-1.197-1.346-1.197-.747 0-1.495.748-1.495 1.646 0 .897.598 1.645 1.495 1.645.598 0 1.197-.449 1.346-1.197h23.773l10.765 11.67h26.615l16.297-17.355h26.016l6.579 7.032h6.429l7.775-8.379h23.773l18.091-19.6h53.976c.15.599.748 1.197 1.346 1.197.747 0 1.495-.748 1.495-1.646 0-.897-.598-1.646-1.495-1.646z" fill="#0FF"/></g><g opacity=".8"><path opacity=".6" d="M-4.589 32.194c-.747 0-1.495.748-1.495 1.646 0 .898.598 1.646 1.495 1.646.748 0 1.196-.449 1.346-1.197h26.315l7.625 8.229h23.026l18.24-19.9h11.962c.15.6.748 1.198 1.346 1.198.748 0 1.495-.748 1.495-1.646 0-.898-.598-1.646-1.495-1.646-.598 0-1.196.449-1.346 1.197h-12.26L53.424 41.47H30.996l-7.625-8.23H-3.243c-.15-.598-.748-1.047-1.346-1.047z" fill="#0FF"/></g><g opacity=".8"><path opacity=".6" d="M34.735 35.635l-7.327-7.93H1.542c-.15-.598-.748-1.196-1.346-1.196-.747 0-1.495.748-1.495 1.645 0 .898.598 1.646 1.495 1.646.598 0 1.196-.449 1.346-1.197H26.96l7.326 7.93h14.952l14.354-15.41c.598.299 1.345.299 1.794-.3.598-.598.598-1.646 0-2.244-.598-.599-1.495-.599-2.093 0-.45.449-.599 1.346-.3 1.945L48.94 35.785H34.735v-.15z" fill="#0FF"/></g><g opacity=".8"><path opacity=".6" d="M260.505-19.574c-.748 0-1.196.449-1.346 1.197h-49.64l-3.588 3.89h-19.587l-15.4 16.608h-15.101c-.15-.599-.748-1.197-1.346-1.197-.747 0-1.495.748-1.495 1.645 0 .898.598 1.646 1.495 1.646.748 0 1.196-.449 1.346-1.197h15.4l15.4-16.607h19.587l3.588-3.89h49.341c.15.598.748 1.196 1.346 1.196.747 0 1.495-.748 1.495-1.645 0-.898-.598-1.646-1.495-1.646z" fill="#0FF"/></g><g opacity=".8"><path opacity=".6" d="M220.285-12.542c-.449.449-.598 1.347-.299 1.945l-9.121 9.875h-22.876c-.149-.598-.747-1.197-1.345-1.197-.748 0-1.496.748-1.496 1.646 0 .898.599 1.646 1.496 1.646.747 0 1.196-.45 1.345-1.197h23.175l9.27-10.025c.599.3 1.346.3 1.795-.299.598-.598.598-1.646 0-2.244-.449-.748-1.346-.748-1.944-.15z" fill="#0FF"/></g><path opacity=".7" d="M2.589 56.732c.448.45.598 1.347.299 1.945l19.736 21.396h66.087l18.54 20.049h37.528l15.102 16.308h19.437l14.204 15.411h60.255c.15-.598.748-1.197 1.346-1.197.748 0 1.495.748 1.495 1.646 0 .898-.598 1.646-1.495 1.646-.748 0-1.196-.449-1.346-1.197h-60.554l-14.204-15.411h-19.437L144.48 101.02h-37.528l-18.54-20.05H22.325L2.14 59.127c-.598.3-1.345.3-1.794-.3-.598-.598-.598-1.645 0-2.243.748-.45 1.645-.45 2.243.15z" fill="#EDED1D"/><path opacity=".7" d="M64.638 74.687l10.915-11.82h21.83l17.792 19.3h40.37c.149-.598.747-1.196 1.345-1.196.748 0 1.495.748 1.495 1.646 0 .897-.598 1.645-1.495 1.645-.747 0-1.196-.448-1.345-1.196h-40.669L97.083 63.765H75.852l-10.915 11.82H28.605L10.812 56.433c-.598.3-1.346.3-1.794-.299-.598-.598-.598-1.646 0-2.244.598-.599 1.495-.599 2.093 0 .449.449.598 1.346.3 1.945l17.493 19.002h35.734v-.15z" fill="#EDED1D"/><path opacity=".7" d="M170.196 103.114l-12.26-13.316h-49.64L91.401 71.544H80.636c-.15.599-.748 1.197-1.346 1.197-.748 0-1.495-.748-1.495-1.645 0-.898.598-1.646 1.495-1.646.748 0 1.196.449 1.346 1.197H91.7L108.595 88.9h49.64l12.26 13.316h17.494l8.971 9.726c.598-.3 1.346-.3 1.794.299.598.598.598 1.646 0 2.244-.598.599-1.495.599-2.093 0-.449-.449-.598-1.346-.299-1.945l-8.822-9.426h-17.344zm-9.12-31.569c-.748 0-1.196-.449-1.346-1.197h-35.286l-20.782-22.443h-31.25l-8.672 9.276H40.715c-.15.599-.748 1.197-1.346 1.197-.747 0-1.495-.748-1.495-1.645 0-.898.598-1.646 1.495-1.646.598 0 1.196.449 1.346 1.197H63.59l8.672-9.277h31.847l20.783 22.443h34.987c.149-.598.748-1.197 1.346-1.197.747 0 1.495.748 1.495 1.646-.15.898-.748 1.646-1.645 1.646z" fill="#EDED1D"/><path opacity=".7" d="M227.911 96.232c-.748 0-1.197-.449-1.346-1.197h-39.323l-17.494-18.852h-50.387L99.924 55.236h-24.97l-12.11 12.867H33.09c-.15.599-.748 1.197-1.346 1.197-.747 0-1.495-.748-1.495-1.645 0-.898.598-1.646 1.495-1.646.748 0 1.196.449 1.346 1.197h29.305l12.111-12.868h25.867l19.437 20.947h50.387l17.493 18.852h39.024c.15-.598.748-1.197 1.346-1.197.748 0 1.495.748 1.495 1.646-.149.898-.747 1.646-1.644 1.646zM23.97 84.561c.747 0 1.196.45 1.345 1.197h59.508l23.474 25.436h24.372l15.699 16.907h24.969l15.7 16.907c.598-.299 1.345-.299 1.794.299.598.599.598 1.646 0 2.244-.598.599-1.495.599-2.094 0-.448-.449-.598-1.346-.299-1.945l-15.4-16.607h-24.969l-15.699-16.907h-24.372L84.524 86.656H25.315c-.15.599-.747 1.197-1.345 1.197-.748 0-1.495-.748-1.495-1.646 0-.897.598-1.645 1.495-1.645z" fill="#EDED1D"/><path opacity=".7" d="M-19.84 51.945c.748-.15 1.495.299 1.795.897h5.083l6.579-5.685H10.96L23.819 61.07h34.688c.15-.598.748-1.197 1.346-1.197.747 0 1.495.748 1.495 1.646 0 .898-.598 1.646-1.495 1.646-.598 0-1.196-.449-1.346-1.197H23.52L10.662 48.054H-6.084l-6.579 5.686h-5.382c-.15.599-.748 1.047-1.346 1.047-.897 0-1.645-.897-1.346-1.795 0-.599.449-.898.897-1.047z" fill="#EDED1D"/></mask><g mask="url(#a)"><path transform="rotate(-90.061 25.617 121.14)" fill="url(#paint0_linear_1200_8056)" d="M0 0h184.032v357.346H0z"/></g></g><defs><linearGradient id="paint0_linear_1200_8056" x1="146.792" y1="89.154" x2="44.01" y2="352.044" gradientUnits="userSpaceOnUse"><stop offset=".076" stop-color="#C2CF25"/><stop offset=".409" stop-color="#B8FFBB"/><stop offset=".654" stop-color="#EB54EE" stop-opacity=".84"/><stop offset="1" stop-color="#2EE6FF"/></linearGradient><clipPath id="clip0_1200_8056"><path fill="#fff" transform="translate(-94 -29)" d="M0 0h356v177H0z"/></clipPath></defs></svg>