<svg width="254" height="110" fill="none" xmlns="http://www.w3.org/2000/svg"><path d="M304.425-22.578c-.875 0-1.4.7-1.4 1.575 0 .174 0 .524.175.7l-35.012 37.079h-34.136l-14.355 15.217h-68.972l-10.154 10.844h-31.51l-2.626-2.624c.35-.7.175-1.399-.175-1.924-.525-.7-1.575-.7-2.1 0-.526.7-.526 1.574 0 2.274.525.525 1.225.525 1.75.175l2.801 2.973h30.985l-5.777 6.122c-.525-.35-1.4-.35-1.75.175-.525.7-.525 1.574 0 2.274s1.575.7 2.1 0c.526-.525.526-1.4.175-1.924l16.456-17.49h26.784l-7.178 7.695h-11.203c-.175-.7-.701-1.224-1.401-1.224-.875 0-1.575.7-1.575 1.574 0 .874.7 1.574 1.575 1.574.7 0 1.226-.525 1.401-1.224h11.553l8.053-8.57h19.256l-18.381 19.589h-34.136L133.919 64.7h-11.904l-10.678-11.194h-16.28l-5.602-5.947H68.098c-.175-.7-.7-1.224-1.4-1.224-.876 0-1.576.7-1.576 1.574 0 .875.7 1.574 1.575 1.574.7 0 1.226-.524 1.4-1.224h21.358l4.901 5.072h-32.91c-.175-.7-.7-1.224-1.4-1.224-.876 0-1.576.7-1.576 1.574 0 .874.7 1.574 1.575 1.574.7 0 1.226-.525 1.4-1.224h49.717l9.803 10.32H39.213c-.175-.7-.7-1.225-1.4-1.225-.875 0-1.576.7-1.576 1.574 0 .874.7 1.574 1.576 1.574.7 0 1.225-.525 1.4-1.224h95.231l11.729-12.418h33.961l10.329-11.02h10.678l4.027 4.198c-.351.7-.175 1.4.175 1.924.525.7 1.575.7 2.1 0 .525-.7.525-1.574 0-2.274-.525-.524-1.225-.524-1.75-.175l-4.202-4.547h-10.153l8.053-8.57h20.656l14.355-15.217h33.086l-7.352 7.87h-15.23L231.251 39.34h-11.729c-.175-.7-.7-1.225-1.4-1.225-.875 0-1.576.7-1.576 1.575a1.57 1.57 0 001.576 1.574c.7 0 1.225-.525 1.4-1.225h12.079l13.655-14.517h14.179L237.378 48.96h-22.582l-9.453 10.144h-34.837l-7.177 7.52h-19.606l-2.451 2.624c-.525-.35-1.401-.35-1.751.175-.525.7-.525 1.575 0 2.274.525.7 1.576.7 2.101 0 .525-.525.525-1.4.175-1.924l2.276-2.449h10.503l-13.829 14.693h-9.979l-8.578-9.096h-16.98c-.175-.7-.7-1.224-1.401-1.224-.875 0-1.575.7-1.575 1.574 0 .875.7 1.574 1.575 1.574.701 0 1.226-.524 1.401-1.224h16.63l7.703 8.22h-26.434l-8.753-9.27H30.811L2.8 43.363c.35-.7.176-1.4-.175-1.924-.525-.7-1.575-.7-2.1 0-.525.7-.525 1.574 0 2.273.525.525 1.225.525 1.75.175l28.184 29.56h48.316L65.472 88.661H39.038l-16.98 18.365c-.525-.35-1.4-.35-1.75.175-.526.699-.526 1.574 0 2.274a1.314 1.314 0 002.1 0c.525-.525.525-1.4.175-1.924l16.63-18.19h26.434l14.005-14.867h14.004l8.753 9.27h38.338l14.704-15.567h8.053l7.177-7.52h33.261l-13.829 14.691h-30.11c-.175-.7-.7-1.224-1.401-1.224-.875 0-1.575.7-1.575 1.574 0 .875.7 1.574 1.575 1.574.701 0 1.226-.525 1.401-1.224h30.46l24.158-25.711h22.582l30.985-32.882h.175l35.362-37.08c.175 0 .35.175.525.175.875 0 1.4-.7 1.4-1.575 0-.874-.35-1.574-1.225-1.574z" fill="url(#paint0_linear_2_7232)"/><defs><linearGradient id="paint0_linear_2_7232" x1="152.891" y1="-22.578" x2="150.205" y2="192.343" gradientUnits="userSpaceOnUse"><stop stop-color="#F84178"/><stop offset=".409" stop-color="#B3CD4B" stop-opacity=".6"/><stop offset=".722" stop-color="#D9F898" stop-opacity=".62"/><stop offset=".961" stop-color="#DB7C53"/></linearGradient></defs></svg>