<svg width="18" height="16" fill="none" xmlns="http://www.w3.org/2000/svg"><path fill-rule="evenodd" clip-rule="evenodd" d="M2.677.501l14.141 14.141.002-.001.001.001-1.179 1.179-2.797-2.798c-1.047.489-2.317.81-3.845.81-6.326 0-8.228-5.514-8.246-5.57L.667 8l.088-.263c.01-.036.774-2.25 2.929-3.875L1.5 1.68 2.677.5zm8.896 11.25l-1.498-1.498A2.462 2.462 0 019 10.5 2.516 2.516 0 016.5 8c0-.383.09-.748.247-1.075L4.864 5.042C3.39 6.055 2.68 7.425 2.43 8c.416.962 2.134 4.167 6.57 4.167.986 0 1.838-.159 2.572-.416z" fill="#627698"/><path d="M6.917 2.384A9.715 9.715 0 019 2.167c6.327 0 8.228 5.514 8.247 5.57l.087.263-.088.263c-.009.028-.475 1.381-1.703 2.747l-1.16-1.16A7.163 7.163 0 0015.57 8c-.416-.962-2.135-4.167-6.57-4.167-.21 0-.414.008-.613.021l-1.47-1.47z" fill="#627698"/></svg>