<svg width="25" height="25" fill="none" xmlns="http://www.w3.org/2000/svg"><path d="M24.92 7.379a9.038 9.038 0 00-.582-3.071 6.388 6.388 0 00-3.655-3.65 9.184 9.184 0 00-3.035-.582C16.312.016 15.888 0 12.498 0c-3.39 0-3.824 0-5.15.076a9.184 9.184 0 00-3.033.582 6.397 6.397 0 00-3.656 3.65 9.07 9.07 0 00-.581 3.028C.018 8.67 0 9.093 0 12.478c0 3.384 0 3.817.078 5.142.02 1.037.216 2.06.581 3.03a6.39 6.39 0 003.657 3.65 9.14 9.14 0 003.034.623c1.336.06 1.76.078 5.15.078 3.39 0 3.825 0 5.15-.078a9.164 9.164 0 003.035-.58 6.409 6.409 0 003.656-3.65c.365-.97.56-1.993.581-3.03.06-1.334.078-1.757.078-5.143-.003-3.384-.003-3.814-.08-5.14zm-12.43 11.5a6.411 6.411 0 01-6.418-6.408 6.411 6.411 0 016.418-6.407c1.702 0 3.335.675 4.539 1.876a6.402 6.402 0 010 9.062 6.424 6.424 0 01-4.539 1.876zM19.164 7.32a1.493 1.493 0 11.571-2.874 1.497 1.497 0 01.924 1.38c0 .826-.67 1.494-1.495 1.494z" fill="#627698"/><path d="M12.5 16.25a3.75 3.75 0 100-7.5 3.75 3.75 0 000 7.5z" fill="#627698"/></svg>