<svg width="16" height="16" fill="none" xmlns="http://www.w3.org/2000/svg"><path fill-rule="evenodd" clip-rule="evenodd" d="M1.536 7.389L3.37 5.554a1 1 0 011.493 1.328l-.078.087-1.834 1.835a3.002 3.002 0 004.117 4.366l.128-.121 1.835-1.835a1 1 0 011.492 1.328l-.077.087-1.835 1.835a5.003 5.003 0 01-7.226-6.919l.15-.156zm12.998-5.924a5.003 5.003 0 010 7.076l-.839.839a1 1 0 01-1.415-1.415l.84-.84A3.002 3.002 0 108.873 2.88l-.84.84A1 1 0 016.62 2.303l.839-.839a5.003 5.003 0 017.075 0z" fill="#52616B"/><path stroke="#52616B" stroke-linecap="round" d="M10 5.707L5.707 10"/></svg>