<svg width="15" height="25" fill="none" xmlns="http://www.w3.org/2000/svg"><path d="M13.104 16.007c-1.335.834-3.17 1.165-4.384 1.29l1.018.986 3.717 3.657c1.358 1.37-.853 3.513-2.226 2.19a775.94 775.94 0 00-3.716-3.67l-3.717 3.666c-1.373 1.318-3.584-.844-2.211-2.19.945-.93 2.294-2.272 3.716-3.657l1.004-.988c-1.199-.124-3.064-.436-4.413-1.289-1.588-1.006-2.284-1.596-1.67-2.827.36-.7 1.348-1.29 2.659-.274 0 0 1.768 1.386 4.622 1.386s4.622-1.386 4.622-1.386c1.31-1.01 2.294-.426 2.66.274.603 1.231-.093 1.82-1.681 2.832zM1.18 6.216C1.18 2.78 4.02 0 7.498 0c3.477 0 6.317 2.78 6.317 6.216 0 3.422-2.84 6.202-6.317 6.202-3.478 0-6.317-2.78-6.317-6.202zm3.214 0c0 1.682 1.393 3.053 3.103 3.053 1.71 0 3.102-1.37 3.102-3.053 0-1.697-1.393-3.067-3.102-3.067-1.71 0-3.103 1.37-3.103 3.067z" fill="#627698"/></svg>