<svg width="30" height="30" fill="none" xmlns="http://www.w3.org/2000/svg"><circle cx="15" cy="15" r="15" fill="#DBF0FF"/><path fill-rule="evenodd" clip-rule="evenodd" d="M19.22 10.968c.754 0 1.365-.664 1.365-1.484S19.975 8 19.221 8c-.754 0-1.365.664-1.365 1.484s.611 1.484 1.365 1.484zm-3.784 8.987h-5.433c-1.54 0-2.502-1.667-1.732-3l2.862-4.956c.758-1.313 2.643-1.338 3.432-.043a975.848 975.848 0 012.693 4.44l.39-.678c.736-1.282 2.541-1.33 3.36-.09l.81 1.232c.88 1.332-.035 3.115-1.608 3.131l-.823.009-3.95-.045z" fill="#627698"/></svg>