<svg width="16" height="16" fill="none" xmlns="http://www.w3.org/2000/svg"><path d="M15.82 4.11c.06-1-.295-1.99-.955-2.65C14.255.85 13.37.5 12.438.5c-.98 0-1.838.377-2.354 1.036-.577.736-1.16 2.187-1.474 3.039L7.263 3.227a.833.833 0 10-1.178 1.179l.244.244-4.36 4.36c-.312.313-.598.76-.806 1.263-.016.036-1.438 3.607-.077 4.966.439.438 1.108.59 1.815.59 1.481-.002 3.127-.657 3.152-.668.502-.207.951-.493 1.262-.806l4.36-4.36.244.244a.832.832 0 101.178-1.178L11.75 7.714c.852-.313 2.305-.896 3.04-1.474.6-.468.975-1.244 1.03-2.13zM2.266 14.062c-.206-.246-.088-1.257.128-2.15l2.018 2.019c-.892.217-1.902.335-2.146.13z" fill="#A9B4CB"/></svg>