<svg width="16" height="16" fill="none" xmlns="http://www.w3.org/2000/svg"><path fill-rule="evenodd" clip-rule="evenodd" d="M8 0a8 8 0 110 16A8 8 0 018 0zm0 11a1 1 0 100 2 1 1 0 000-2zm0-8c1.657 0 3 1.175 3 2.625 0 .473-.203.833-.568 1.17l-.127.111-.607.474c-.47.4-.698.857-.698 1.745 0 .449-.386.819-.883.87L8 10c-.552 0-1-.392-1-.875l.005-.251c.05-1.148.442-1.955 1.143-2.61l.154-.138.225-.18.456-.351c.011-.007.015-.006.017 0l-.009-.087C8.926 5.08 8.507 4.75 8 4.75c-.513 0-.936.338-.993.773l-.014.204c-.057.435-.48.773-.993.773-.552 0-1-.392-1-.875C5 4.175 6.343 3 8 3z" fill="#627698"/></svg>