<svg width="22" height="26" fill="none" xmlns="http://www.w3.org/2000/svg"><path d="M0 4.145A4.145 4.145 0 014.145 0h13.71A4.145 4.145 0 0122 4.145V15.09a4.15 4.15 0 01-1.531 3.218l-6.855 5.57a4.146 4.146 0 01-5.228 0l-6.855-5.57A4.145 4.145 0 010 15.089V4.145z" fill="#A9B4CB"/><path fill-rule="evenodd" clip-rule="evenodd" d="M8.75 11.273h4.5c2.071 0 3.75 1.592 3.75 3.555 0 .393-.336.711-.75.711-.385 0-.375 0-.75.004-1.116 0-1.125-.004-2.118 0l-.132-.004H6.5c-.375.004-.336 0-.75 0S5 15.221 5 14.83c0-1.912 1.592-3.472 3.587-3.552l.163-.004zM11 4.875c1.657 0 3 1.273 3 2.844 0 1.57-1.343 2.843-3 2.843S8 9.29 8 7.72s1.343-2.844 3-2.844z" fill="#F0F3FF"/></svg>