<svg width="18" height="12" fill="none" xmlns="http://www.w3.org/2000/svg"><path d="M9 3.5A2.517 2.517 0 006.5 6c0 1.368 1.132 2.5 2.5 2.5s2.5-1.132 2.5-2.5c0-1.367-1.132-2.5-2.5-2.5z" fill="#627698"/><path d="M9 .167C2.674.167.772 5.68.755 5.737L.667 6l.087.263c.018.056 1.92 5.57 8.246 5.57 6.327 0 8.228-5.514 8.246-5.57L17.334 6l-.087-.263C17.228 5.68 15.327.167 9 .167zm0 10c-4.435 0-6.153-3.205-6.57-4.167.42-.965 2.139-4.167 6.57-4.167 4.435 0 6.154 3.205 6.57 4.167-.418.965-2.137 4.167-6.57 4.167z" fill="#627698"/></svg>