<svg width="22" height="22" fill="none" xmlns="http://www.w3.org/2000/svg"><path d="M11 .09C4.974.09.09 4.975.09 11S4.975 21.909 11 21.909s10.909-4.883 10.909-10.91c0-6.025-4.883-10.908-10.91-10.908zM5.018 9.567c.145-1.852 1.416-3.14 2.463-3.14 1.047 0 2.318 1.288 2.463 3.14.031.378-.233.67-.444.934h-4c-.482-.5-.513-.56-.482-.934zm11.032 5.402A6.553 6.553 0 0111 17.334a6.553 6.553 0 01-5.05-2.366c-.594-.717.484-1.615 1.082-.902A5.14 5.14 0 0011 15.922c1.54 0 2.982-.677 3.968-1.856.598-.713 1.676.189 1.082.902zm.45-4.468h-4c-.216-.264-.47-.56-.44-.934.145-1.852 1.416-3.14 2.463-3.14 1.047 0 2.319 1.288 2.464 3.14.026.378.013.434-.487.934z" fill="#52616B"/></svg>