<svg width="32" height="32" fill="none" xmlns="http://www.w3.org/2000/svg"><circle cx="16" cy="16" r="16" fill="#FFD565"/><path fill-rule="evenodd" clip-rule="evenodd" d="M15.555 21.983l-3.463 1.902a.937.937 0 01-1.292-.42 1.039 1.039 0 01-.096-.634l.661-4.03a1.028 1.028 0 00-.275-.884l-2.8-2.854a1.032 1.032 0 01-.017-1.413.943.943 0 01.547-.292l3.871-.588a.96.96 0 00.72-.547l1.732-3.665c.234-.496.808-.699 1.281-.455a.98.98 0 01.435.455l1.731 3.665c.14.295.409.5.72.547l3.872.588c.523.08.885.587.809 1.133-.03.218-.128.419-.28.572l-2.8 2.854c-.226.23-.329.56-.275.885l.66 4.029c.09.544-.26 1.061-.78 1.154a.92.92 0 01-.607-.1l-3.463-1.902a.92.92 0 00-.89 0z" fill="#FFFBE5"/></svg>