<svg width="16" height="16" fill="none" xmlns="http://www.w3.org/2000/svg"><path fill-rule="evenodd" clip-rule="evenodd" d="M7.555 13.983l-3.463 1.902a.937.937 0 01-1.292-.42 1.04 1.04 0 01-.096-.634l.661-4.03a1.028 1.028 0 00-.275-.884L.29 7.063A1.032 1.032 0 01.272 5.65a.943.943 0 01.547-.292L4.69 4.77a.96.96 0 00.72-.547L7.143.558c.234-.496.808-.699 1.281-.455a.98.98 0 01.435.455l1.731 3.665c.14.295.409.5.72.547l3.872.588c.523.08.885.587.809 1.133-.03.218-.128.419-.28.572l-2.8 2.854c-.226.23-.329.56-.275.885l.66 4.029c.09.544-.26 1.061-.78 1.154a.92.92 0 01-.607-.1l-3.463-1.902a.92.92 0 00-.89 0zm-2.54-.887l1.577-.866a2.92 2.92 0 012.816 0l1.576.866-.323-1.97a3.028 3.028 0 01.822-2.61l1.449-1.476-1.923-.292a2.96 2.96 0 01-2.228-1.67L8 3.423l-.78 1.653a2.96 2.96 0 01-2.23 1.67l-1.922.293 1.45 1.476c.674.687.977 1.66.82 2.61l-.322 1.97z" fill="#627698"/></svg>