<svg width="30" height="30" fill="none" xmlns="http://www.w3.org/2000/svg"><circle cx="15" cy="15" r="15" fill="#DBF0FF"/><path fill-rule="evenodd" clip-rule="evenodd" d="M12.322 18.335h5.357a4.464 4.464 0 014.464 4.465.893.893 0 01-1.78.104l-.01-.262a2.679 2.679 0 00-2.517-2.516l-.157-.005h-5.357A2.68 2.68 0 009.643 22.8a.893.893 0 01-1.786 0c0-2.4 1.895-4.359 4.271-4.46l.194-.005h5.357-5.357zM15 9.407a4.464 4.464 0 110 8.929 4.464 4.464 0 010-8.929zm0 1.786a2.679 2.679 0 100 5.357 2.679 2.679 0 000-5.357z" fill="#52616B"/><path d="M8 10.955l7.65-3.478 7.65 3.478-7.65 3.477L8 10.955z" fill="#52616B"/></svg>