<svg width="17" height="20" fill="none" xmlns="http://www.w3.org/2000/svg"><path fill-rule="evenodd" clip-rule="evenodd" d="M5.322 14.335h5.357a4.464 4.464 0 014.464 4.465.893.893 0 01-1.78.104l-.01-.262a2.679 2.679 0 00-2.517-2.516l-.157-.005H5.322A2.68 2.68 0 002.643 18.8a.893.893 0 01-1.786 0c0-2.4 1.895-4.359 4.271-4.46l.194-.005h5.357-5.357zM8 5.407a4.464 4.464 0 110 8.929 4.464 4.464 0 010-8.929zm0 1.786a2.679 2.679 0 100 5.357 2.679 2.679 0 000-5.357z" fill="#1E2022"/><path d="M1 6.955l7.65-3.478 7.65 3.478-7.65 3.477L1 6.955z" fill="#1E2022"/></svg>