<svg width="26" height="21" fill="none" xmlns="http://www.w3.org/2000/svg"><path d="M25.203 3.015a10.01 10.01 0 01-2.876.788 5.022 5.022 0 002.201-2.77c-.967.574-2.038.99-3.18 1.215a5.007 5.007 0 00-8.532 4.567 14.215 14.215 0 01-10.32-5.232c-.43.74-.677 1.6-.677 2.517 0 1.737.884 3.27 2.227 4.168a4.989 4.989 0 01-2.267-.626v.063a5.01 5.01 0 004.015 4.91 5.01 5.01 0 01-2.26.085 5.012 5.012 0 004.677 3.477 10.045 10.045 0 01-6.219 2.143c-.404 0-.802-.023-1.194-.07a14.172 14.172 0 007.675 2.25c9.21 0 14.246-7.63 14.246-14.246 0-.217-.005-.433-.015-.648a10.173 10.173 0 002.499-2.591z" fill="#627698"/></svg>