<svg width="28" height="16" fill="none" xmlns="http://www.w3.org/2000/svg"><path d="M25.033 5.839C27.93 1.916 27.288 1.843 28 .617h-5.552s-.395 1.37-.515 1.615c-1.067 2.17-3.459 5.424-4.905 5.756-1.425.328-1.236-3.038-1.148-4.497.083-1.351.069-1.824.029-2.058A.784.784 0 0015.22.8a20.427 20.427 0 00-3.43-.15l-1.287.043c.507 1.135.85.787 1.037 2.1.211 1.539.128 5.28-1.387 5.28C7.724 8.074 5 .782 4.912.618H0l.45 1.125C4.071 10.81 8.601 15.01 14.8 15.359l.807.024.057-.783c.088-1.21.695-2.952 1.77-2.952 1.591 0 2.05.463 3.1 1.76 1.008 1.242 1.703 1.975 3.33 1.975H28l-.59-1.186c-.92-1.848-2.767-3.433-3.488-4.352-.262-.346-.519-.893-.253-1.555.218-.576.866-1.779 1.364-2.451z" fill="#627698"/></svg>