<svg width="168" height="52" viewBox="0 0 168 52" fill="none" xmlns="http://www.w3.org/2000/svg">
<g filter="url(#filter0_d_1255_37845)">
<path d="M0.68811 5.06969C0.68811 2.2812 2.94905 0.031247 5.73728 0.0694114C17.7733 0.234157 47.391 0.63507 50.5806 0.63507C54.5949 0.63507 76.9605 24.0388 79.8279 24.0388C82.2742 24.0388 144.411 24.0388 162.607 24.0388C165.369 24.0388 167.57 26.2773 167.57 29.0388V40.5471C167.57 43.3085 165.377 45.5471 162.616 45.5471C143.854 45.5471 78.0244 45.5471 74.0931 45.5471C69.5053 45.5471 50.0071 22.7736 46.5662 22.7736C43.8583 22.7736 16.9966 22.7736 5.67683 22.7736C2.91541 22.7736 0.68811 20.535 0.68811 17.7736V5.06969Z" fill="#3BDE9B"/>
</g>
<defs>
<filter id="filter0_d_1255_37845" x="0.68811" y="0.0693359" width="166.882" height="51.4775" filterUnits="userSpaceOnUse" color-interpolation-filters="sRGB">
<feFlood flood-opacity="0" result="BackgroundImageFix"/>
<feColorMatrix in="SourceAlpha" type="matrix" values="0 0 0 0 0 0 0 0 0 0 0 0 0 0 0 0 0 0 127 0" result="hardAlpha"/>
<feOffset dy="6"/>
<feComposite in2="hardAlpha" operator="out"/>
<feColorMatrix type="matrix" values="0 0 0 0 0.12549 0 0 0 0 0.627451 0 0 0 0 0.4 0 0 0 1 0"/>
<feBlend mode="normal" in2="BackgroundImageFix" result="effect1_dropShadow_1255_37845"/>
<feBlend mode="normal" in="SourceGraphic" in2="effect1_dropShadow_1255_37845" result="shape"/>
</filter>
</defs>
</svg>
