<svg width="20" height="20" viewBox="0 0 20 20" fill="none" xmlns="http://www.w3.org/2000/svg">
<path fill-rule="evenodd" clip-rule="evenodd" d="M4.00039 0.399902C4.66313 0.399902 5.20039 0.937161 5.20039 1.5999L5.2002 1.68432C6.61227 0.867437 8.25173 0.399902 10.0004 0.399902C11.7495 0.399902 13.3894 0.867702 14.8018 1.68502L14.8004 1.5999C14.8004 0.937161 15.3376 0.399902 16.0004 0.399902H18.4004C19.0631 0.399902 19.6004 0.937161 19.6004 1.5999V3.9999C19.6004 4.66264 19.0631 5.1999 18.4004 5.1999L18.316 5.19971C19.1329 6.61179 19.6004 8.25124 19.6004 9.9999C19.6004 15.3018 15.3023 19.5999 10.0004 19.5999C4.69846 19.5999 0.400391 15.3018 0.400391 9.9999C0.400391 8.25124 0.867925 6.61179 1.68481 5.19971L1.60039 5.1999C0.937649 5.1999 0.400391 4.66264 0.400391 3.9999V1.5999C0.400391 0.937161 0.937649 0.399902 1.60039 0.399902H4.00039ZM10.0004 2.79991C6.02394 2.79991 2.80039 6.02346 2.80039 9.99992C2.80039 13.9764 6.02394 17.1999 10.0004 17.1999C13.9768 17.1999 17.2004 13.9764 17.2004 9.99992C17.2004 6.02346 13.9768 2.79991 10.0004 2.79991ZM10.0004 5.1999C10.6158 5.1999 11.123 5.66315 11.1923 6.25995L11.2004 6.3999V9.50284L13.2489 11.5514C13.7175 12.02 13.7175 12.7798 13.2489 13.2484C12.8163 13.681 12.1357 13.7143 11.6649 13.3483L11.5519 13.2484L9.15186 10.8484C8.96432 10.6609 8.84527 10.4177 8.81079 10.1576L8.80039 9.9999V6.3999C8.80039 5.73715 9.33765 5.1999 10.0004 5.1999Z" fill="#52616B"/>
</svg>
