<svg width="30" height="30" viewBox="0 0 30 30" fill="none" xmlns="http://www.w3.org/2000/svg">
<circle cx="15" cy="15" r="15" fill="#FFF1E5"/>
<path fill-rule="evenodd" clip-rule="evenodd" d="M16.4142 14.9998L20.7072 10.7068C21.0982 10.3158 21.0982 9.68376 20.7072 9.29276C20.3162 8.90176 19.6842 8.90176 19.2933 9.29276L15.0002 13.5858L10.7072 9.29276C10.3162 8.90176 9.68425 8.90176 9.29325 9.29276C8.90225 9.68376 8.90225 10.3158 9.29325 10.7068L13.5862 14.9998L9.29325 19.2928C8.90225 19.6838 8.90225 20.3158 9.29325 20.7068C9.48825 20.9018 9.74425 20.9998 10.0002 20.9998C10.2563 20.9998 10.5122 20.9018 10.7072 20.7068L15.0002 16.4138L19.2933 20.7068C19.4882 20.9018 19.7443 20.9998 20.0002 20.9998C20.2562 20.9998 20.5122 20.9018 20.7072 20.7068C21.0982 20.3158 21.0982 19.6838 20.7072 19.2928L16.4142 14.9998Z" fill="#FAB294"/>
</svg>
