<svg width="36" height="36" viewBox="0 0 36 36" fill="none" xmlns="http://www.w3.org/2000/svg">
<circle r="18" transform="matrix(1 0 0 -1 18 18)" fill="#F0F1FF"/>
<path fill-rule="evenodd" clip-rule="evenodd" d="M17.7561 25.0488C18.2949 25.0488 18.7317 24.612 18.7317 24.0732V18.2196H24.5853C25.1241 18.2196 25.5609 17.7828 25.5609 17.2439C25.5609 16.7051 25.1241 16.2683 24.5853 16.2683H18.7317V10.4147C18.7317 9.87587 18.2949 9.43907 17.7561 9.43907C17.2172 9.43907 16.7804 9.87587 16.7804 10.4147V16.2683H10.9268C10.388 16.2683 9.95117 16.7051 9.95117 17.2439C9.95117 17.7828 10.388 18.2196 10.9268 18.2196H16.7804V24.0732C16.7804 24.612 17.2172 25.0488 17.7561 25.0488Z" fill="#7F84EC"/>
</svg>
