<svg width="16" height="16" viewBox="0 0 16 16" fill="none" xmlns="http://www.w3.org/2000/svg">
<path fill-rule="evenodd" clip-rule="evenodd" d="M13 0C13.5563 0 13.9973 0.451293 14.0001 0.99308L13.9939 1.11043L13.894 1.999L15 2L15.1166 2.00673C15.5757 2.06005 15.9399 2.4243 15.9933 2.88338L16 3V5L15.9954 5.21689C15.8994 7.4655 14.3183 9.32952 12.208 9.85309C11.6884 10.5541 11.0137 11.14 10.2272 11.5581L9.999 11.672V13.999L13 14C13.5523 14 14 14.4477 14 15C14 15.5523 13.5523 16 13 16H3C2.44772 16 2 15.5523 2 15C2 14.4477 2.44772 14 3 14L5.999 13.999V11.672L5.78178 11.5629C4.99133 11.1444 4.31353 10.5567 3.79057 9.85196C1.68168 9.32952 0.100589 7.4655 0.00461951 5.21689L0 5V3C0 2.48716 0.38604 2.06449 0.883379 2.00673L1 2L2.105 1.999L2.00612 1.11043C1.94469 0.557557 2.34452 0.0694056 2.88268 0.00677606L3 0H13ZM4 4H2V5C2 6.59768 3.24892 7.90366 4.82373 7.99491L5 8V5C5 4.48716 4.61396 4.06449 4.11662 4.00673L4 4ZM14 4H12L11.8834 4.00673C11.4243 4.06005 11.06 4.4243 11.0067 4.88338L11 5V8L11.1763 7.99491C12.6928 7.90704 13.907 6.69275 13.9949 5.17627L14 5V4Z" fill="#627698"/>
</svg>
