<svg width="16" height="12" viewBox="0 0 16 12" fill="none" xmlns="http://www.w3.org/2000/svg">
<path fill-rule="evenodd" clip-rule="evenodd" d="M8 0C11.1993 0 13.7551 1.78386 15.5962 5.21474L15.7668 5.54121L16 6L15.7668 6.45879C13.9142 10.1029 11.2993 12 8 12C4.80071 12 2.24492 10.2161 0.403752 6.78526L0.233239 6.45879L0 6L0.233239 5.54121C2.08581 1.89709 4.70074 0 8 0ZM8 4C9.10457 4 10 4.89543 10 6C10 7.10457 9.10457 8 8 8C6.89543 8 6 7.10457 6 6C6 4.89543 6.89543 4 8 4Z" fill="#627698"/>
</svg>
