<svg width="21" height="18" viewBox="0 0 21 18" fill="none" xmlns="http://www.w3.org/2000/svg">
<path d="M0 3.64583C0 2.6789 0.384113 1.75157 1.06784 1.06784C1.75157 0.384113 2.6789 0 3.64583 0H16.7708C17.7378 0 18.6651 0.384113 19.3488 1.06784C20.0326 1.75157 20.4167 2.6789 20.4167 3.64583V13.8542C20.4167 14.8211 20.0326 15.7484 19.3488 16.4322C18.6651 17.1159 17.7378 17.5 16.7708 17.5H3.64583C2.6789 17.5 1.75157 17.1159 1.06784 16.4322C0.384113 15.7484 0 14.8211 0 13.8542V3.64583ZM5.90917 6.86292C6.61062 6.79 7.15312 6.91542 7.34708 7.01313C7.43303 7.05947 7.52742 7.08809 7.62464 7.09727C7.72186 7.10644 7.81993 7.096 7.91304 7.06656C8.00615 7.03711 8.09239 6.98926 8.16666 6.92585C8.24092 6.86244 8.30169 6.78476 8.34536 6.69742C8.38903 6.61008 8.41472 6.51485 8.42089 6.4174C8.42705 6.31994 8.41359 6.22224 8.38128 6.13008C8.34897 6.03793 8.29848 5.95321 8.23281 5.88094C8.16713 5.80867 8.08761 5.75033 7.99896 5.70937C7.48708 5.45271 6.64562 5.32 5.7575 5.41333C4.3575 5.55917 2.91667 6.77542 2.91667 8.76313C2.91667 10.7829 4.45375 12.1173 6.27083 12.1173C7.11667 12.1173 7.875 11.7192 8.30812 11.3108C8.69021 10.9492 8.75 10.4679 8.75 10.169V8.76313C8.75 8.56974 8.67318 8.38427 8.53643 8.24753C8.39969 8.11078 8.21422 8.03396 8.02083 8.03396H6.84396C6.65057 8.03396 6.4651 8.11078 6.32836 8.24753C6.19161 8.38427 6.11479 8.56974 6.11479 8.76313C6.11479 8.95651 6.19161 9.14198 6.32836 9.27872C6.4651 9.41547 6.65057 9.49229 6.84396 9.49229H7.29167V10.1675C7.29173 10.2027 7.2888 10.2378 7.28292 10.2725C6.99879 10.5116 6.64202 10.6473 6.27083 10.6575C5.20479 10.6575 4.375 9.9225 4.375 8.76167C4.375 7.57021 5.20187 6.93729 5.90917 6.86292ZM11.6667 6.13958C11.6667 5.9462 11.5898 5.76073 11.4531 5.62398C11.3164 5.48724 11.1309 5.41042 10.9375 5.41042C10.7441 5.41042 10.5586 5.48724 10.4219 5.62398C10.2852 5.76073 10.2083 5.9462 10.2083 6.13958V11.3896C10.2083 11.583 10.2852 11.7684 10.4219 11.9052C10.5586 12.0419 10.7441 12.1188 10.9375 12.1188C11.1309 12.1188 11.3164 12.0419 11.4531 11.9052C11.5898 11.7684 11.6667 11.583 11.6667 11.3896V6.13958ZM13.8542 5.41042C13.6608 5.41042 13.4753 5.48724 13.3386 5.62398C13.2018 5.76073 13.125 5.9462 13.125 6.13958V11.3896C13.125 11.583 13.2018 11.7684 13.3386 11.9052C13.4753 12.0419 13.6608 12.1188 13.8542 12.1188C14.0476 12.1188 14.233 12.0419 14.3698 11.9052C14.5065 11.7684 14.5833 11.583 14.5833 11.3896V9.48646L16.046 9.47771C16.2394 9.47655 16.4244 9.39861 16.5604 9.26105C16.6963 9.12348 16.772 8.93755 16.7708 8.74417C16.7697 8.55078 16.6917 8.36577 16.5542 8.22985C16.4166 8.09392 16.2307 8.01822 16.0373 8.01937L14.5833 8.02958V6.86729H16.7708C16.9642 6.86729 17.1497 6.79047 17.2864 6.65372C17.4232 6.51698 17.5 6.33151 17.5 6.13813C17.5 5.94474 17.4232 5.75927 17.2864 5.62253C17.1497 5.48578 16.9642 5.40896 16.7708 5.40896H13.8542V5.41042Z" fill="#52616B"/>
</svg>
