<svg width="21" height="22" viewBox="0 0 21 22" fill="none" xmlns="http://www.w3.org/2000/svg">
<path d="M20.6632 9.0821H10.9484V13.1083H16.5391C16.0187 15.6668 13.8406 17.1368 10.9484 17.1368C7.53822 17.1368 4.78956 14.3881 4.78956 10.9768C4.78956 7.5666 7.53822 4.81793 10.9484 4.81793C12.4172 4.81793 13.7449 5.33943 14.7867 6.19227L17.8201 3.1601C15.9721 1.54893 13.6026 0.554932 10.9484 0.554932C5.16872 0.554932 0.525391 5.1971 0.525391 10.9779C0.525391 16.7588 5.16756 21.4009 10.9484 21.4009C16.1599 21.4009 20.8989 17.6104 20.8989 10.9779C20.8989 10.3619 20.8044 9.6981 20.6632 9.0821Z" fill="#627698"/>
</svg>
