<svg width="262" height="110" viewBox="0 0 262 110" fill="none" xmlns="http://www.w3.org/2000/svg">
<g clip-path="url(#clip0_1200_8056)">
<mask id="mask0_1200_8056" style="mask-type:alpha" maskUnits="userSpaceOnUse" x="-72" y="-29" width="334" height="177">
<g opacity="0.8">
<g opacity="0.8">
<g opacity="0.8">
<path opacity="0.8" d="M187.691 63.7641L202.343 79.6237C202.941 79.3245 203.689 79.3245 204.137 79.923C204.735 80.5215 204.735 81.5688 204.137 82.1673C203.539 82.7658 202.642 82.7658 202.044 82.1673C201.596 81.7184 201.446 80.8207 201.745 80.2222L187.391 64.6618H136.705L118.913 45.5105C118.315 45.8097 117.567 45.8097 117.118 45.2112C116.52 44.6127 116.52 43.5654 117.118 42.9669C117.717 42.3684 118.614 42.3684 119.212 42.9669C119.66 43.4158 119.81 44.3135 119.511 44.912L137.004 63.7641L187.691 63.7641Z" fill="#1AFFD8"/>
</g>
</g>
<g opacity="0.8">
<g opacity="0.8">
<path opacity="0.8" d="M220.286 25.0127H212.959L205.782 32.7929H189.485L181.262 23.9653L160.927 23.9653L146.723 39.2265H124.744C124.595 39.825 123.997 40.4235 123.398 40.4235C122.651 40.4235 121.903 39.6754 121.903 38.7777C121.903 37.8799 122.501 37.1318 123.398 37.1318C124.146 37.1318 124.595 37.5807 124.744 38.3288H146.275L160.479 22.918L181.561 22.918L189.784 31.7455H205.483L212.66 23.9653H219.987L233.443 9.30261C233.144 8.70413 233.144 7.95603 233.742 7.35755C234.34 6.75907 235.237 6.75907 235.835 7.35755C236.433 7.95603 236.433 9.00337 235.835 9.60184C235.387 10.0507 234.639 10.2003 234.041 9.90108L220.286 25.0127Z" fill="#1AFFD8"/>
</g>
</g>
<g opacity="0.8">
<g opacity="0.8">
<path opacity="0.8" d="M158.834 54.4878L169.3 43.1167H182.009L191.877 53.7397H206.231L213.557 61.6695C214.155 61.3703 214.903 61.3703 215.351 61.9688C215.949 62.5673 215.949 63.6146 215.351 64.2131C214.753 64.8115 213.856 64.8115 213.258 64.2131C212.809 63.7642 212.66 62.8665 212.959 62.268L205.782 54.6374H191.428L181.56 44.0144H169.449L158.983 55.3855H139.397L131.622 47.0068C131.024 47.306 130.276 47.306 129.827 46.7076C129.229 46.1091 129.229 45.0618 129.827 44.4633C130.426 43.8648 131.323 43.8648 131.921 44.4633C132.369 44.9121 132.519 45.8099 132.22 46.4083L139.845 54.6374H158.834V54.4878Z" fill="#1AFFD8"/>
</g>
</g>
<g opacity="0.8">
<g opacity="0.8">
<path opacity="0.8" d="M178.72 59.7241C178.57 60.3225 177.972 60.921 177.374 60.921C176.626 60.921 175.879 60.1729 175.879 59.2752C175.879 58.3775 176.477 57.6294 177.374 57.6294C177.972 57.6294 178.57 58.0783 178.72 58.8263H200.25L222.977 84.112C223.575 83.8128 224.322 83.8128 224.771 84.4113C225.369 85.0098 225.369 86.0571 224.771 86.6556C224.173 87.2541 223.276 87.2541 222.678 86.6556C222.229 86.2067 222.08 85.309 222.379 84.7105L199.951 59.8737H178.72V59.7241Z" fill="#1AFFD8"/>
</g>
</g>
<g opacity="0.8">
<g opacity="0.8">
<path opacity="0.8" d="M212.062 47.007H196.662L189.186 38.9275L163.02 38.9275L156.741 45.6604H140.742C140.593 46.2589 139.995 46.8573 139.397 46.8573C138.649 46.8573 137.901 46.1092 137.901 45.2115C137.901 44.3138 138.499 43.5657 139.397 43.5657C140.144 43.5657 140.593 44.0146 140.742 44.7627H156.292L162.572 38.0298L189.485 38.0298L196.961 46.1092H212.361L217.893 52.8421C218.491 52.5429 219.239 52.5429 219.687 53.1414C220.285 53.7399 220.285 54.7872 219.687 55.3857C219.089 55.9841 218.192 55.9841 217.594 55.3857C217.145 54.9368 216.996 54.0391 217.295 53.4406L212.062 47.007Z" fill="#1AFFD8"/>
</g>
</g>
<g opacity="0.8">
<g opacity="0.8">
<path opacity="0.8" d="M156.591 38.7779C155.993 39.3763 155.095 39.3763 154.497 38.7779C153.899 38.1794 153.899 37.132 154.497 36.5336C154.946 36.0847 155.694 35.9351 156.292 36.2343L162.422 29.6511L176.626 29.6511C176.775 29.0526 177.373 28.4541 177.972 28.4541C178.719 28.4541 179.467 29.2022 179.467 30.0999C179.467 30.9976 178.869 31.7457 177.972 31.7457C177.224 31.7457 176.775 31.2969 176.626 30.5488L162.721 30.5488L156.89 36.8328C157.039 37.4313 157.039 38.329 156.591 38.7779Z" fill="#1AFFD8"/>
</g>
</g>
</g>
<g opacity="0.8">
<g opacity="0.6">
<path opacity="0.6" d="M-53.4807 18.2798L-47.201 25.0127L-16.6995 25.0127L-8.62561 16.1851H9.61548L12.9048 19.776L42.6587 19.776L58.2085 3.01859L103.213 2.86897L112.633 13.6416H123.398L144.779 -9.54945L156.74 -9.54945L172.14 -26.0076C172.739 -25.7084 173.486 -25.7084 173.935 -26.3068C174.533 -26.9053 174.533 -27.9527 173.935 -28.5511C173.337 -29.1496 172.439 -29.1496 171.841 -28.5511C171.393 -28.1023 171.243 -27.2046 171.542 -26.6061L156.292 -10.2976L144.33 -10.2976L122.949 13.0431H112.932L103.512 2.2705L57.9095 2.42012L42.3597 19.0279L13.2039 19.0279L9.91451 15.437H-8.92464L-16.9986 24.2646L-46.902 24.2646L-53.1817 17.3821H-68.7314C-68.881 16.7836 -69.479 16.1851 -70.0771 16.1851C-70.8247 16.1851 -71.5723 16.9332 -71.5723 17.8309C-71.5723 18.7287 -70.9742 19.4768 -70.0771 19.4768C-69.3295 19.4768 -68.881 19.0279 -68.7314 18.2798H-53.4807Z" fill="#00FFFF"/>
</g>
</g>
<g opacity="0.8">
<g opacity="0.6">
<path opacity="0.6" d="M215.799 6.01074C215.052 6.01074 214.603 6.4596 214.454 7.2077L142.088 7.2077L128.332 22.1697L112.633 22.1697L101.867 10.4993L57.4609 10.6489L46.2472 22.7681L-5.1867 22.7681L-11.7654 30.0995L-36.1367 30.0995C-36.2862 29.501 -36.8843 28.9025 -37.4824 28.9025C-38.23 28.9025 -38.9775 29.6506 -38.9775 30.5484C-38.9775 31.4461 -38.3795 32.1942 -37.4824 32.1942C-36.8843 32.1942 -36.2862 31.7453 -36.1367 30.9972L-11.4664 30.9972L-4.73814 23.8155L46.3967 23.8155L57.6105 11.6963L101.419 11.5467L112.184 23.217L128.482 23.217L142.237 8.25504L214.304 8.25504C214.454 8.85351 215.052 9.45199 215.65 9.45199C216.398 9.45199 217.145 8.7039 217.145 7.80618C217.145 6.75884 216.547 6.01074 215.799 6.01074Z" fill="#00FFFF"/>
</g>
</g>
<g opacity="0.8">
<g opacity="0.6">
<path opacity="0.6" d="M213.557 10.6494C212.809 10.6494 212.361 11.0983 212.211 11.8464L157.936 11.8464L139.845 31.4465H116.072L108.297 39.8252H102.466L95.8869 32.7931L69.2728 32.7931L52.9755 50.149H26.9595L16.1943 38.4787H-7.87793C-8.02745 37.8802 -8.62551 37.2817 -9.22358 37.2817C-9.97117 37.2817 -10.7187 38.0298 -10.7187 38.9275C-10.7187 39.8252 -10.1207 40.5733 -9.22358 40.5733C-8.62551 40.5733 -8.02745 40.1245 -7.87793 39.3764H15.8953L26.6605 51.0467H53.2745L69.5719 33.6908L95.5878 33.6908L102.167 40.723H108.596L116.371 32.3443H140.144L158.235 12.7441L212.211 12.7441C212.361 13.3426 212.959 13.941 213.557 13.941C214.304 13.941 215.052 13.1929 215.052 12.2952C215.052 11.3975 214.454 10.6494 213.557 10.6494Z" fill="#00FFFF"/>
</g>
</g>
<g opacity="0.8">
<g opacity="0.6">
<path opacity="0.6" d="M-4.58881 32.1943C-5.3364 32.1943 -6.08398 32.9424 -6.08398 33.8401C-6.08398 34.7378 -5.48592 35.4859 -4.58881 35.4859C-3.84123 35.4859 -3.39268 35.037 -3.24316 34.2889H23.0718L30.6972 42.518L53.7228 42.518L71.9639 22.6186L83.9253 22.6186C84.0748 23.2171 84.6729 23.8156 85.2709 23.8156C86.0185 23.8156 86.7661 23.0675 86.7661 22.1697C86.7661 21.272 86.168 20.5239 85.2709 20.5239C84.6729 20.5239 84.0748 20.9728 83.9253 21.7209L71.6649 21.7209L53.4238 41.4707L30.9962 41.4707L23.3709 33.2416H-3.24316C-3.39268 32.6431 -3.99075 32.1943 -4.58881 32.1943Z" fill="#00FFFF"/>
</g>
</g>
<g opacity="0.8">
<g opacity="0.6">
<path opacity="0.6" d="M34.7348 35.6354L27.4084 27.7055L1.542 27.7055C1.39248 27.1071 0.794409 26.5086 0.196341 26.5086C-0.551243 26.5086 -1.29883 27.2567 -1.29883 28.1544C-1.29883 29.0521 -0.70076 29.8002 0.196341 29.8002C0.794409 29.8002 1.39248 29.3513 1.542 28.6033L26.9599 28.6033L34.2862 36.5331H49.2379L63.5915 21.1223C64.1896 21.4215 64.9372 21.4215 65.3857 20.823C65.9838 20.2246 65.9838 19.1772 65.3857 18.5787C64.7877 17.9803 63.8906 17.9803 63.2925 18.5787C62.8439 19.0276 62.6944 19.9253 62.9935 20.5238L48.9389 35.785H34.7348V35.6354Z" fill="#00FFFF"/>
</g>
</g>
<g opacity="0.8">
<g opacity="0.6">
<path opacity="0.6" d="M260.505 -19.5742C259.757 -19.5742 259.309 -19.1254 259.159 -18.3773L209.519 -18.3773L205.931 -14.4872L186.344 -14.4872L170.944 2.12062L155.843 2.12062C155.693 1.52215 155.095 0.923668 154.497 0.923668C153.75 0.923668 153.002 1.67177 153.002 2.56948C153.002 3.4672 153.6 4.2153 154.497 4.2153C155.245 4.2153 155.693 3.76644 155.843 3.01834L171.243 3.01834L186.643 -13.5894L206.23 -13.5894L209.818 -17.4795L259.159 -17.4795C259.309 -16.8811 259.907 -16.2826 260.505 -16.2826C261.252 -16.2826 262 -17.0307 262 -17.9284C262 -18.8261 261.402 -19.5742 260.505 -19.5742Z" fill="#00FFFF"/>
</g>
</g>
<g opacity="0.8">
<g opacity="0.6">
<path opacity="0.6" d="M220.285 -12.5419C219.836 -12.0931 219.687 -11.1953 219.986 -10.5969L210.865 -0.721968L187.989 -0.721968C187.84 -1.32045 187.242 -1.91892 186.644 -1.91892C185.896 -1.91892 185.148 -1.17083 185.148 -0.273108C185.148 0.62461 185.747 1.37271 186.644 1.37271C187.391 1.37271 187.84 0.923848 187.989 0.175751L211.164 0.175751L220.434 -9.84876C221.033 -9.54952 221.78 -9.54952 222.229 -10.148C222.827 -10.7465 222.827 -11.7938 222.229 -12.3923C221.78 -13.1404 220.883 -13.1404 220.285 -12.5419Z" fill="#00FFFF"/>
</g>
</g>
<g opacity="0.7">
<path opacity="0.7" d="M2.58877 56.7323C3.03732 57.1811 3.18684 58.0788 2.88781 58.6773L22.624 80.0729L88.7105 80.0729L107.251 100.122H144.779L159.881 116.43L179.318 116.43L193.522 131.841L253.777 131.841C253.927 131.243 254.525 130.644 255.123 130.644C255.871 130.644 256.618 131.392 256.618 132.29C256.618 133.188 256.02 133.936 255.123 133.936C254.375 133.936 253.927 133.487 253.777 132.739L193.223 132.739L179.019 117.328L159.582 117.328L144.48 101.02H106.952L88.4115 80.9706L22.325 80.9706L2.14022 59.1262C1.54215 59.4254 0.794563 59.4254 0.346012 58.8269C-0.252056 58.2285 -0.252056 57.1811 0.346012 56.5826C1.0936 56.1338 1.9907 56.1338 2.58877 56.7323Z" fill="#EDED1D"/>
</g>
<g opacity="0.7">
<path opacity="0.7" d="M64.6382 74.6869L75.5529 62.867H97.3824L115.175 82.1679H155.545C155.694 81.5694 156.292 80.9709 156.89 80.9709C157.638 80.9709 158.385 81.719 158.385 82.6167C158.385 83.5144 157.787 84.2625 156.89 84.2625C156.143 84.2625 155.694 83.8137 155.545 83.0656H114.876L97.0834 63.7647H75.852L64.9372 75.5846H28.6046L10.8121 56.4333C10.214 56.7325 9.46644 56.7325 9.01789 56.1341C8.41982 55.5356 8.41982 54.4883 9.01789 53.8898C9.61595 53.2913 10.5131 53.2913 11.1111 53.8898C11.5597 54.3386 11.7092 55.2364 11.4102 55.8348L28.9036 74.8365H64.6382V74.6869Z" fill="#EDED1D"/>
</g>
<g opacity="0.7">
<path opacity="0.7" d="M170.196 103.114L157.936 89.798H108.296L91.401 71.5444H80.6357C80.4862 72.1428 79.8882 72.7413 79.2901 72.7413C78.5425 72.7413 77.7949 71.9932 77.7949 71.0955C77.7949 70.1978 78.393 69.4497 79.2901 69.4497C80.0377 69.4497 80.4862 69.8986 80.6357 70.6467H91.7L108.595 88.9002H158.235L170.495 102.216L187.989 102.216L196.96 111.942C197.558 111.642 198.306 111.642 198.754 112.241C199.352 112.839 199.352 113.887 198.754 114.485C198.156 115.084 197.259 115.084 196.661 114.485C196.212 114.036 196.063 113.139 196.362 112.54L187.54 103.114L170.196 103.114Z" fill="#EDED1D"/>
</g>
<g opacity="0.7">
<path opacity="0.7" d="M161.076 71.5449C160.328 71.5449 159.88 71.0961 159.73 70.348L124.444 70.348L103.662 47.905L72.4125 47.905L63.7405 57.1815H40.7148C40.5653 57.7799 39.9673 58.3784 39.3692 58.3784C38.6216 58.3784 37.874 57.6303 37.874 56.7326C37.874 55.8349 38.4721 55.0868 39.3692 55.0868C39.9673 55.0868 40.5653 55.5356 40.7148 56.2837H63.591L72.2629 47.0073L104.11 47.0073L124.893 69.4503H159.88C160.029 68.8518 160.628 68.2533 161.226 68.2533C161.973 68.2533 162.721 69.0014 162.721 69.8991C162.571 70.7968 161.973 71.5449 161.076 71.5449Z" fill="#EDED1D"/>
</g>
<g opacity="0.7">
<path opacity="0.7" d="M227.911 96.2319C227.163 96.2319 226.714 95.783 226.565 95.0349L187.242 95.0349L169.748 76.1828H119.361L99.924 55.2361H74.9546L62.8437 68.1034H33.0898C32.9403 68.7019 32.3423 69.3003 31.7442 69.3003C30.9966 69.3003 30.249 68.5522 30.249 67.6545C30.249 66.7568 30.8471 66.0087 31.7442 66.0087C32.4918 66.0087 32.9403 66.4576 33.0898 67.2057H62.3952L74.5061 54.3384H100.373L119.81 75.2851H170.197L187.69 94.1372L226.714 94.1372C226.864 93.5387 227.462 92.9402 228.06 92.9402C228.808 92.9402 229.555 93.6883 229.555 94.5861C229.406 95.4838 228.808 96.2319 227.911 96.2319Z" fill="#EDED1D"/>
</g>
<g opacity="0.7">
<path opacity="0.7" d="M23.9698 84.5615C24.7174 84.5615 25.1659 85.0104 25.3154 85.7585H84.8232L108.297 111.194L132.669 111.194L148.368 128.101H173.337L189.037 145.008C189.635 144.709 190.382 144.709 190.831 145.307C191.429 145.906 191.429 146.953 190.831 147.551C190.233 148.15 189.336 148.15 188.737 147.551C188.289 147.102 188.139 146.205 188.438 145.606L173.038 128.999H148.069L132.37 112.092L107.998 112.092L84.5242 86.6562H25.3154C25.1659 87.2547 24.5678 87.8531 23.9698 87.8531C23.2222 87.8531 22.4746 87.1051 22.4746 86.2073C22.4746 85.3096 23.0727 84.5615 23.9698 84.5615Z" fill="#EDED1D"/>
</g>
<g opacity="0.7">
<path opacity="0.7" d="M-19.8396 51.9446C-19.0921 51.7949 -18.3445 52.2438 -18.0454 52.8423H-12.9619L-6.38311 47.1567H10.9609L23.8193 61.0714H58.5073C58.6568 60.4729 59.2549 59.8744 59.8529 59.8744C60.6005 59.8744 61.3481 60.6225 61.3481 61.5202C61.3481 62.4179 60.75 63.166 59.8529 63.166C59.2549 63.166 58.6568 62.7172 58.5073 61.9691H23.5203L10.6618 48.0545H-6.08408L-12.6628 53.74H-18.0454C-18.195 54.3385 -18.793 54.7873 -19.3911 54.7873C-20.2882 54.7873 -21.0358 53.8896 -20.7367 52.9919C-20.7367 52.3934 -20.2882 52.0942 -19.8396 51.9446Z" fill="#EDED1D"/>
</g>
</mask>
<g mask="url(#mask0_1200_8056)">
<rect width="184.032" height="357.346" transform="matrix(-0.00107319 -0.999999 0.999999 -0.00107466 -95.4961 146.888)" fill="url(#paint0_linear_1200_8056)"/>
</g>
</g>
<defs>
<linearGradient id="paint0_linear_1200_8056" x1="146.792" y1="89.154" x2="44.0095" y2="352.044" gradientUnits="userSpaceOnUse">
<stop offset="0.0760415" stop-color="#C2CF25"/>
<stop offset="0.409375" stop-color="#B8FFBB"/>
<stop offset="0.654167" stop-color="#EB54EE" stop-opacity="0.84"/>
<stop offset="1" stop-color="#2EE6FF"/>
</linearGradient>
<clipPath id="clip0_1200_8056">
<rect width="356" height="177" fill="white" transform="translate(-94 -29)"/>
</clipPath>
</defs>
</svg>
