<svg width="254" height="110" viewBox="0 0 254 110" fill="none" xmlns="http://www.w3.org/2000/svg">
<path d="M304.425 -22.5776C303.55 -22.5776 303.025 -21.878 303.025 -21.0035C303.025 -20.8286 303.025 -20.4788 303.2 -20.3039L268.188 16.776L234.052 16.776L219.697 31.9927L199.041 31.9927L150.725 31.9927L140.571 42.8368L109.061 42.8368L106.435 40.2132C106.785 39.5136 106.61 38.814 106.26 38.2893C105.735 37.5897 104.685 37.5897 104.16 38.2893C103.634 38.9889 103.634 39.8634 104.16 40.563C104.685 41.0878 105.385 41.0878 105.91 40.738L108.711 43.7113L139.696 43.7113L133.919 49.833C133.394 49.4832 132.519 49.4832 132.169 50.0079C131.644 50.7075 131.644 51.5821 132.169 52.2817C132.694 52.9813 133.744 52.9813 134.269 52.2817C134.795 51.757 134.795 50.8824 134.444 50.3577L150.9 32.8672L177.684 32.8672L170.506 40.563H159.303C159.128 39.8634 158.602 39.3387 157.902 39.3387C157.027 39.3387 156.327 40.0383 156.327 40.9129C156.327 41.7874 157.027 42.487 157.902 42.487C158.602 42.487 159.128 41.9623 159.303 41.2627H170.856L178.909 32.6923H198.165L179.784 52.2817H145.648L133.919 64.6999H122.015L111.337 53.506H95.0566L89.4548 47.5592H68.0978C67.9227 46.8596 67.3976 46.3349 66.6973 46.3349C65.822 46.3349 65.1218 47.0345 65.1218 47.909C65.1218 48.7836 65.822 49.4832 66.6973 49.4832C67.3976 49.4832 67.9227 48.9585 68.0978 48.2589H89.4548L94.3564 53.3311H61.4456C61.2706 52.6315 60.7454 52.1068 60.0452 52.1068C59.1699 52.1068 58.4696 52.8064 58.4696 53.6809C58.4696 54.5554 59.1699 55.2551 60.0452 55.2551C60.7454 55.2551 61.2706 54.7303 61.4456 54.0307H111.162L120.965 64.3501L39.2134 64.3501C39.0383 63.6505 38.5131 63.1258 37.8129 63.1258C36.9376 63.1258 36.2374 63.8254 36.2374 64.6999C36.2374 65.5745 36.9376 66.2741 37.8129 66.2741C38.5131 66.2741 39.0383 65.7494 39.2134 65.0497L134.444 65.0497L146.173 52.6315H180.134L190.463 41.6125H201.141L205.168 45.8102C204.817 46.5098 204.993 47.2094 205.343 47.7341C205.868 48.4338 206.918 48.4338 207.443 47.7341C207.968 47.0345 207.968 46.16 207.443 45.4604C206.918 44.9357 206.218 44.9357 205.693 45.2855L201.491 40.738H191.338L199.391 32.1676L220.047 32.1676L234.402 16.9509L267.488 16.9509L260.136 24.8216L244.906 24.8216L231.251 39.3387H219.522C219.347 38.6391 218.822 38.1144 218.122 38.1144C217.247 38.1144 216.546 38.814 216.546 39.6885C216.546 40.563 217.247 41.2627 218.122 41.2627C218.822 41.2627 219.347 40.7379 219.522 40.0383H231.601L245.256 25.5212L259.435 25.5212L237.378 48.9585L214.796 48.9585L205.343 59.103H170.506L163.329 66.6239H143.723L141.272 69.2475C140.747 68.8977 139.871 68.8977 139.521 69.4224C138.996 70.122 138.996 70.9965 139.521 71.6961C140.046 72.3958 141.097 72.3958 141.622 71.6961C142.147 71.1714 142.147 70.2969 141.797 69.7722L144.073 67.3235H154.576L140.747 82.0155L130.768 82.0155L122.19 72.9205H105.21C105.035 72.2208 104.51 71.6961 103.809 71.6961C102.934 71.6961 102.234 72.3957 102.234 73.2703C102.234 74.1448 102.934 74.8444 103.809 74.8444C104.51 74.8444 105.035 74.3197 105.21 73.6201H121.84L129.543 81.8406H103.109L94.3564 72.5707L30.8106 72.5707L2.80146 43.3615C3.15157 42.6619 2.97652 41.9623 2.6264 41.4376C2.10123 40.738 1.05089 40.738 0.525715 41.4376C0.000543028 42.1372 0.000543028 43.0117 0.525715 43.7113C1.05089 44.2361 1.75111 44.2361 2.27629 43.8862L30.4605 73.4452L78.7763 73.4452L65.4719 88.6619L39.0383 88.6619L22.0578 107.027C21.5326 106.677 20.6573 106.677 20.3072 107.202C19.782 107.901 19.782 108.776 20.3072 109.476C20.8323 110.175 21.8827 110.175 22.4079 109.476C22.933 108.951 22.933 108.076 22.5829 107.552L39.2134 89.3615L65.647 89.3615L79.6516 74.4946H93.6561L102.409 83.7646L140.747 83.7646L155.451 68.198H163.504L170.681 60.6771H203.942L190.113 75.3691H160.003C159.828 74.6695 159.303 74.1448 158.602 74.1448C157.727 74.1448 157.027 74.8444 157.027 75.7189C157.027 76.5935 157.727 77.2931 158.602 77.2931C159.303 77.2931 159.828 76.7684 160.003 76.0688H190.463L214.621 50.3577L237.203 50.3577L268.188 17.4756H268.363L303.725 -19.6043C303.9 -19.6043 304.075 -19.4293 304.25 -19.4293C305.125 -19.4293 305.65 -20.129 305.65 -21.0035C305.65 -21.878 305.3 -22.5776 304.425 -22.5776Z" fill="url(#paint0_linear_1200_5479)"/>
<defs>
<linearGradient id="paint0_linear_1200_5479" x1="152.891" y1="-22.5776" x2="150.205" y2="192.343" gradientUnits="userSpaceOnUse">
<stop stop-color="#F84178"/>
<stop offset="0.409375" stop-color="#B3CD4B" stop-opacity="0.6"/>
<stop offset="0.721875" stop-color="#D9F898" stop-opacity="0.62"/>
<stop offset="0.961458" stop-color="#DB7C53"/>
</linearGradient>
</defs>
</svg>
