<svg width="18" height="16" viewBox="0 0 18 16" fill="none" xmlns="http://www.w3.org/2000/svg">
<path fill-rule="evenodd" clip-rule="evenodd" d="M2.67738 0.501465L16.8181 14.6422L16.8195 14.6407L16.821 14.6421L15.6425 15.8206L12.8451 13.0233C11.7977 13.5118 10.528 13.8333 9.00033 13.8333C2.67366 13.8333 0.772257 8.31917 0.754022 8.26334L0.666992 8L0.754851 7.73667C0.765847 7.7014 1.52869 5.48786 3.68405 3.86224L1.50033 1.67851L2.67738 0.501465ZM11.5726 11.7508L10.0749 10.2531C9.74833 10.4111 9.38355 10.5 9.00033 10.5C7.63199 10.5 6.50033 9.36834 6.50033 8C6.50033 7.61678 6.5892 7.252 6.74725 6.92544L4.86393 5.04211C3.39114 6.05494 2.6798 7.4248 2.4308 8C2.84689 8.96167 4.56511 12.1667 9.00033 12.1667C9.987 12.1667 10.8392 12.008 11.5726 11.7508Z" fill="#627698"/>
<path d="M6.91717 2.38424C7.55124 2.24544 8.24417 2.16667 9.00033 2.16667C15.327 2.16667 17.2284 7.68084 17.2466 7.73667L17.3337 8L17.2458 8.26334C17.2372 8.29085 16.771 9.64428 15.5429 11.0099L14.3832 9.85022C15.0385 9.10801 15.4052 8.38031 15.5698 8C15.1538 7.03834 13.4355 3.83334 9.00033 3.83334C8.78993 3.83334 8.58565 3.84055 8.38733 3.85439L6.91717 2.38424Z" fill="#627698"/>
</svg>
