<svg width="12" height="16" viewBox="0 0 12 16" fill="none" xmlns="http://www.w3.org/2000/svg">
<path fill-rule="evenodd" clip-rule="evenodd" d="M8 14C8.55229 14 9 14.4477 9 15C9 15.5523 8.55229 16 8 16H4C3.44772 16 3 15.5523 3 15C3 14.4477 3.44772 14 4 14H8ZM5.99976 0C9.51542 0 12 2.14732 12 5.55614C12 7.03449 11.4264 8.2346 10.3487 9.57121L9.4566 10.6387L9.3379 10.7907L9.23694 10.9317L9.13923 11.0851C9.09505 11.6025 8.66217 12 8.14286 12H3.85714C3.33783 12 2.90495 11.6025 2.86077 11.0851L2.76306 10.9317L2.66209 10.7906L2.54339 10.6386L1.65131 9.57113C0.573702 8.23455 0 7.03449 0 5.5562C0 2.1474 2.4845 0 5.99976 0Z" fill="#627698"/>
</svg>
