<svg width="16" height="16" viewBox="0 0 16 16" fill="none" xmlns="http://www.w3.org/2000/svg">
<path fill-rule="evenodd" clip-rule="evenodd" d="M1.53567 7.38854L3.37023 5.55397C3.76099 5.16321 4.39454 5.16321 4.7853 5.55397C5.14815 5.91682 5.17407 6.48902 4.86305 6.88177L4.7853 6.96905L2.95074 8.80361C1.77845 9.97589 1.77845 11.8765 2.95074 13.0488C4.08115 14.1792 5.88884 14.2196 7.06763 13.1699L7.19595 13.0488L9.03051 11.2143C9.42128 10.8235 10.0548 10.8235 10.4456 11.2143C10.8084 11.5771 10.8344 12.1493 10.5233 12.5421L10.4456 12.6293L8.61102 14.4639C6.65722 16.4177 3.48947 16.4177 1.53567 14.4639C-0.366723 12.5615 -0.416786 9.50823 1.38548 7.54526L1.53567 7.38854ZM14.5342 1.46535C16.488 3.41916 16.488 6.5869 14.5342 8.54071L13.6952 9.37969C13.3045 9.77046 12.6709 9.77046 12.2801 9.37969C11.8894 8.98893 11.8894 8.35538 12.2801 7.96462L13.1191 7.12564C14.2914 5.95335 14.2914 4.05271 13.1191 2.88042C11.9469 1.70814 10.0462 1.70814 8.87392 2.88042L8.03494 3.71941C7.64417 4.11017 7.01063 4.11017 6.61986 3.71941C6.2291 3.32865 6.2291 2.6951 6.61986 2.30434L7.45885 1.46535C9.41266 -0.488451 12.5804 -0.488451 14.5342 1.46535Z" fill="#52616B"/>
<line x1="10" y1="5.70711" x2="5.70711" y2="10" stroke="#52616B" stroke-linecap="round"/>
</svg>
