<svg width="16" height="16" viewBox="0 0 16 16" fill="none" xmlns="http://www.w3.org/2000/svg">
<path fill-rule="evenodd" clip-rule="evenodd" d="M13 0C14.6569 0 16 1.34315 16 3V11C16 12.6569 14.6569 14 13 14H10.4142L8.70711 15.7071C8.31658 16.0976 7.68342 16.0976 7.29289 15.7071L5.58579 14H3C1.34315 14 0 12.6569 0 11V3C0 1.34315 1.34315 0 3 0H13ZM8 4C8.55229 4 9 4.44772 9 5V6H10C10.5523 6 11 6.44772 11 7C11 7.55228 10.5523 8 10 8H9V9C9 9.55229 8.55229 10 8 10C7.44772 10 7 9.55229 7 9V8H6C5.44772 8 5 7.55228 5 7C5 6.44772 5.44772 6 6 6H7V5C7 4.44772 7.44772 4 8 4Z" fill="#627698"/>
</svg>
