<svg width="16" height="16" viewBox="0 0 16 16" fill="none" xmlns="http://www.w3.org/2000/svg">
<path fill-rule="evenodd" clip-rule="evenodd" d="M13 0C14.6569 0 16 1.34315 16 3V11C16 12.6569 14.6569 14 13 14H10.4142L8.70711 15.7071C8.31658 16.0976 7.68342 16.0976 7.29289 15.7071L5.58579 14H3C1.34315 14 0 12.6569 0 11V3C0 1.34315 1.34315 0 3 0H13ZM11 8C11.5523 8 12 8.44771 12 9C12 9.55229 11.5523 10 11 10H5C4.44772 10 4 9.55229 4 9C4 8.44771 4.44772 8 5 8H11ZM11 4C11.5523 4 12 4.44772 12 5C12 5.55228 11.5523 6 11 6H5C4.44772 6 4 5.55228 4 5C4 4.44772 4.44772 4 5 4H11Z" fill="#627698"/>
</svg>
