<svg width="15" height="25" viewBox="0 0 15 25" fill="none" xmlns="http://www.w3.org/2000/svg">
<path d="M13.1039 16.0071C11.7693 16.841 9.93315 17.1717 8.72039 17.2963L9.73833 18.2835L13.4546 21.9403C14.8134 23.3109 12.6022 25.4532 11.2287 24.1305C10.2984 23.2007 8.93469 21.8588 7.5125 20.4594L3.79627 24.1257C2.42278 25.4436 0.211556 23.2822 1.58505 21.9355C2.52993 21.0057 3.87907 19.6638 5.30127 18.2788L6.3046 17.2915C5.10645 17.1669 3.24103 16.8554 1.89189 16.0023C0.304096 14.9959 -0.392391 14.4064 0.221297 13.1747C0.581717 12.475 1.57044 11.8855 2.88061 12.9015C2.88061 12.9015 4.64862 14.2866 7.50275 14.2866C10.3569 14.2866 12.1249 12.9015 12.1249 12.9015C13.4351 11.8903 14.4189 12.475 14.7842 13.1747C15.3882 14.4064 14.6917 14.9959 13.1039 16.0071ZM1.18079 6.21593C1.18079 2.77967 4.02032 0 7.49788 0C10.9754 0 13.815 2.77967 13.815 6.21593C13.815 9.6378 10.9754 12.4175 7.49788 12.4175C4.02032 12.4175 1.18079 9.6378 1.18079 6.21593ZM4.39535 6.21593C4.39535 7.89811 5.78832 9.26878 7.49788 9.26878C9.20744 9.26878 10.6004 7.89811 10.6004 6.21593C10.6004 4.51937 9.20744 3.1487 7.49788 3.1487C5.78832 3.1487 4.39535 4.51937 4.39535 6.21593Z" fill="#627698"/>
</svg>
