<svg width="16" height="16" viewBox="0 0 16 16" fill="none" xmlns="http://www.w3.org/2000/svg">
<path fill-rule="evenodd" clip-rule="evenodd" d="M11.2258 0.419409C10.4412 -0.190641 9.30676 -0.135181 8.58579 0.585786L0.585786 8.58579L0.412161 8.78394C0.146329 9.13103 0 9.55797 0 10V14L0.0134555 14.2332C0.128986 15.2279 0.974328 16 2 16H6L6.26289 15.9827C6.69629 15.9252 7.10165 15.7268 7.41421 15.4142L15.4142 7.41421L15.5806 7.2258C16.1906 6.44122 16.1352 5.30675 15.4142 4.58579L11.4142 0.585786L11.2258 0.419409ZM2.20967 12.1573C1.91546 11.9285 1.49003 11.9493 1.21967 12.2197L1.15456 12.294C1.05487 12.4241 1 12.5842 1 12.75V14.25L1.00505 14.3375C1.04837 14.7105 1.36537 15 1.75 15H3.25L3.34858 14.9935C3.51111 14.9719 3.66312 14.8975 3.78033 14.7803L3.84272 14.7097C4.07149 14.4155 4.05069 13.99 3.78033 13.7197L2.28033 12.2197L2.20967 12.1573Z" fill="#52616B"/>
</svg>
