<svg width="18" height="15" viewBox="0 0 18 15" fill="none" xmlns="http://www.w3.org/2000/svg">
<path fill-rule="evenodd" clip-rule="evenodd" d="M6.1875 8C7.73314 8 9.14641 8.51292 10.2309 9.36095C10.891 9.12847 11.6154 9 12.375 9C15.4816 9 18 11.149 18 13.8C18 14.4627 17.3704 15 16.5938 15H1.54688C0.692559 15 0 14.3732 0 13.6C0 10.5072 2.77024 8 6.1875 8ZM5.35714 0C7.13234 0 8.57143 1.43908 8.57143 3.21429C8.57143 4.98949 7.13234 6.42857 5.35714 6.42857C3.58194 6.42857 2.14286 4.98949 2.14286 3.21429C2.14286 1.43908 3.58194 0 5.35714 0ZM12.8571 3.14288C14.0406 3.14288 15 4.10227 15 5.28574C15 6.46921 14.0406 7.4286 12.8571 7.4286C11.6737 7.4286 10.7143 6.46921 10.7143 5.28574C10.7143 4.10227 11.6737 3.14288 12.8571 3.14288Z" fill="#627698"/>
</svg>
