<svg width="30" height="30" viewBox="0 0 30 30" fill="none" xmlns="http://www.w3.org/2000/svg">
<circle cx="15" cy="15" r="15" fill="#DBF0FF"/>
<path fill-rule="evenodd" clip-rule="evenodd" d="M19.2207 10.9682C19.9743 10.9682 20.5851 10.3038 20.5851 9.48411C20.5851 8.66446 19.9743 8 19.2207 8C18.4671 8 17.8563 8.66446 17.8563 9.48411C17.8563 10.3038 18.4671 10.9682 19.2207 10.9682ZM15.4363 19.9551H10.003C8.46327 19.9551 7.50104 18.2882 8.27106 16.9549L11.1331 11.9992C11.8914 10.6862 13.7761 10.6608 14.5652 11.9555C15.3797 13.2921 16.364 14.9119 17.2584 16.3963L17.6479 15.7179C18.3837 14.4363 20.1895 14.3882 21.0071 15.6284L21.8187 16.8596C22.6972 18.1922 21.7826 19.9746 20.2101 19.9913L19.387 20L15.4363 19.9551Z" fill="#627698"/>
</svg>
