<svg width="16" height="16" viewBox="0 0 16 16" fill="none" xmlns="http://www.w3.org/2000/svg">
<path d="M15.8199 4.10917C15.8808 3.11 15.5249 2.11917 14.8649 1.46C14.2549 0.850833 13.3708 0.5 12.4383 0.5C11.4583 0.5 10.5999 0.8775 10.0841 1.53583C9.50743 2.27167 8.9241 3.72333 8.60993 4.575L7.26327 3.2275C7.18594 3.15005 7.09411 3.0886 6.99301 3.04667C6.89191 3.00475 6.78355 2.98317 6.6741 2.98317C6.56466 2.98317 6.45628 3.00475 6.35519 3.04667C6.25409 3.0886 6.16226 3.15005 6.08493 3.2275C6.00728 3.30471 5.94565 3.39651 5.9036 3.49762C5.86155 3.59873 5.8399 3.70716 5.8399 3.81667C5.8399 3.92617 5.86155 4.0346 5.9036 4.13571C5.94565 4.23682 6.00728 4.32862 6.08493 4.40583L6.3291 4.65L1.96993 9.01C1.65743 9.3225 1.37077 9.77 1.16327 10.2733C1.14743 10.3092 -0.275067 13.88 1.08577 15.2392C1.52493 15.6775 2.1941 15.8283 2.90077 15.8283C4.38243 15.8267 6.02827 15.1725 6.05327 15.1608C6.55493 14.9542 7.0041 14.6675 7.31493 14.355L11.6749 9.995L11.9191 10.2392C11.9963 10.3168 12.0881 10.3784 12.1892 10.4205C12.2903 10.4625 12.3988 10.4842 12.5083 10.4842C12.6178 10.4842 12.7262 10.4625 12.8273 10.4205C12.9284 10.3784 13.0202 10.3168 13.0974 10.2392C13.1749 10.1618 13.2363 10.07 13.2783 9.96891C13.3202 9.86782 13.3418 9.75944 13.3418 9.65C13.3418 9.54056 13.3202 9.43219 13.2783 9.33109C13.2363 9.22999 13.1749 9.13816 13.0974 9.06083L11.7499 7.71417C12.6024 7.40083 14.0549 6.81833 14.7899 6.24C15.3908 5.77167 15.7649 4.99583 15.8199 4.10917ZM2.26577 14.0625C2.05993 13.8167 2.17827 12.8058 2.3941 11.9125L4.41243 13.9317C3.51993 14.1492 2.50993 14.2675 2.26577 14.0625Z" fill="#A9B4CB"/>
</svg>
