<svg width="16" height="16" viewBox="0 0 16 16" fill="none" xmlns="http://www.w3.org/2000/svg">
<path fill-rule="evenodd" clip-rule="evenodd" d="M4.17071 2L4.23766 1.82776C4.69415 0.753414 5.75909 0 7 0C8.293 0 9.40322 0.820612 9.82315 2H11C12.6569 2 14 3.34315 14 5V6.17071C15.1652 6.58254 16 7.69378 16 9C16 10.3062 15.1652 11.4175 14 11.8293V13C14 14.6569 12.6569 16 11 16H9C8.48716 16 8.06449 15.614 8.00673 15.1166L7.99327 14.8834C7.93551 14.386 7.51284 14 7 14C6.48716 14 6.06449 14.386 6.00673 14.8834L5.99327 15.1166C5.93551 15.614 5.51284 16 5 16H3C1.34315 16 0 14.6569 0 13V11C0 10.4872 0.38604 10.0645 0.883379 10.0067L1.11662 9.99327C1.61396 9.93551 2 9.51284 2 9C2 8.48716 1.61396 8.06449 1.11662 8.00673L0.883379 7.99327C0.38604 7.93551 0 7.51284 0 7V5C0 3.34315 1.34315 2 3 2H4.17071Z" fill="#627698"/>
</svg>
