<svg width="16" height="16" viewBox="0 0 16 16" fill="none" xmlns="http://www.w3.org/2000/svg">
<path fill-rule="evenodd" clip-rule="evenodd" d="M8 0C12.4183 0 16 3.58172 16 8C16 12.4183 12.4183 16 8 16C3.58172 16 0 12.4183 0 8C0 3.58172 3.58172 0 8 0ZM8 11C7.44772 11 7 11.4477 7 12C7 12.5523 7.44772 13 8 13C8.55229 13 9 12.5523 9 12C9 11.4477 8.55229 11 8 11ZM8 3C9.65685 3 11 4.17525 11 5.625C11 6.09803 10.7972 6.45838 10.4325 6.79484L10.305 6.90622L9.69768 7.37992C9.22788 7.78025 9 8.23682 9 9.125C9 9.57373 8.61396 9.94357 8.11662 9.99411L8 10C7.44772 10 7 9.60825 7 9.125L7.00529 8.87377C7.05456 7.72603 7.44742 6.91893 8.14759 6.26423L8.30232 6.1262L8.52685 5.94611L8.98333 5.59462C8.99403 5.58831 8.99834 5.58892 8.9999 5.59409L8.99119 5.50831C8.92599 5.08023 8.50707 4.75 8 4.75C7.48716 4.75 7.06449 5.08779 7.00673 5.52296L6.99327 5.72704C6.93551 6.16221 6.51284 6.5 6 6.5C5.44772 6.5 5 6.10825 5 5.625C5 4.17525 6.34315 3 8 3Z" fill="#627698"/>
</svg>
