<svg width="30" height="30" viewBox="0 0 30 30" fill="none" xmlns="http://www.w3.org/2000/svg">
<mask id="path-1-inside-1_1216_572" fill="white">
<path d="M30 30C30 26.0603 29.224 22.1593 27.7164 18.5195C26.2087 14.8797 23.999 11.5726 21.2132 8.7868C18.4274 6.00104 15.1203 3.79125 11.4805 2.28361C7.84073 0.775973 3.93966 -1.72208e-07 -1.90735e-06 0L0 12.7198C2.26926 12.7198 4.5163 13.1668 6.61283 14.0352C8.70936 14.9036 10.6143 16.1765 12.2189 17.7811C13.8235 19.3857 15.0964 21.2906 15.9648 23.3872C16.8332 25.4837 17.2802 27.7307 17.2802 30H30Z"/>
</mask>
<path d="M30 30C30 26.0603 29.224 22.1593 27.7164 18.5195C26.2087 14.8797 23.999 11.5726 21.2132 8.7868C18.4274 6.00104 15.1203 3.79125 11.4805 2.28361C7.84073 0.775973 3.93966 -1.72208e-07 -1.90735e-06 0L0 12.7198C2.26926 12.7198 4.5163 13.1668 6.61283 14.0352C8.70936 14.9036 10.6143 16.1765 12.2189 17.7811C13.8235 19.3857 15.0964 21.2906 15.9648 23.3872C16.8332 25.4837 17.2802 27.7307 17.2802 30H30Z" fill="#F0F5F9" stroke="#A9B4CB" stroke-width="2" mask="url(#path-1-inside-1_1216_572)"/>
</svg>
