<svg width="30" height="30" viewBox="0 0 30 30" fill="none" xmlns="http://www.w3.org/2000/svg">
<mask id="path-1-inside-1_1216_574" fill="white">
<path d="M0 -1.90735e-06C-3.44416e-07 3.93966 0.775972 7.84073 2.28361 11.4805C3.79125 15.1203 6.00104 18.4274 8.7868 21.2132C11.5726 23.999 14.8797 26.2087 18.5195 27.7164C22.1593 29.224 26.0603 30 30 30V17.2802C27.7307 17.2802 25.4837 16.8332 23.3872 15.9648C21.2906 15.0964 19.3857 13.8235 17.7811 12.2189C16.1765 10.6143 14.9036 8.70936 14.0352 6.61283C13.1668 4.5163 12.7198 2.26926 12.7198 -1.90735e-06H0Z"/>
</mask>
<path d="M0 -1.90735e-06C-3.44416e-07 3.93966 0.775972 7.84073 2.28361 11.4805C3.79125 15.1203 6.00104 18.4274 8.7868 21.2132C11.5726 23.999 14.8797 26.2087 18.5195 27.7164C22.1593 29.224 26.0603 30 30 30V17.2802C27.7307 17.2802 25.4837 16.8332 23.3872 15.9648C21.2906 15.0964 19.3857 13.8235 17.7811 12.2189C16.1765 10.6143 14.9036 8.70936 14.0352 6.61283C13.1668 4.5163 12.7198 2.26926 12.7198 -1.90735e-06H0Z" fill="#F0F5F9" stroke="#A9B4CB" stroke-width="2" mask="url(#path-1-inside-1_1216_574)"/>
</svg>
