<svg width="30" height="30" viewBox="0 0 30 30" fill="none" xmlns="http://www.w3.org/2000/svg">
<mask id="path-1-inside-1_1216_573" fill="white">
<path d="M30 0C26.0603 -4.69799e-08 22.1593 0.775973 18.5195 2.28361C14.8797 3.79126 11.5726 6.00104 8.78679 8.7868C6.00104 11.5726 3.79125 14.8797 2.28361 18.5195C0.775972 22.1593 -5.94871e-07 26.0603 0 30L12.7198 30C12.7198 27.7307 13.1668 25.4837 14.0352 23.3872C14.9036 21.2906 16.1765 19.3857 17.7811 17.7811C19.3857 16.1765 21.2906 14.9036 23.3872 14.0352C25.4837 13.1668 27.7307 12.7198 30 12.7198V0Z"/>
</mask>
<path d="M30 0C26.0603 -4.69799e-08 22.1593 0.775973 18.5195 2.28361C14.8797 3.79126 11.5726 6.00104 8.78679 8.7868C6.00104 11.5726 3.79125 14.8797 2.28361 18.5195C0.775972 22.1593 -5.94871e-07 26.0603 0 30L12.7198 30C12.7198 27.7307 13.1668 25.4837 14.0352 23.3872C14.9036 21.2906 16.1765 19.3857 17.7811 17.7811C19.3857 16.1765 21.2906 14.9036 23.3872 14.0352C25.4837 13.1668 27.7307 12.7198 30 12.7198V0Z" fill="#F0F5F9" stroke="#A9B4CB" stroke-width="2" mask="url(#path-1-inside-1_1216_573)"/>
</svg>
