<svg width="30" height="30" viewBox="0 0 30 30" fill="none" xmlns="http://www.w3.org/2000/svg">
<mask id="path-1-inside-1_1216_575" fill="white">
<path d="M-1.90735e-06 30C3.93966 30 7.84074 29.224 11.4805 27.7164C15.1203 26.2087 18.4274 23.999 21.2132 21.2132C23.999 18.4274 26.2087 15.1203 27.7164 11.4805C29.224 7.84073 30 3.93965 30 -3.8147e-06L17.2802 -1.90735e-06C17.2802 2.26926 16.8332 4.5163 15.9648 6.61283C15.0964 8.70936 13.8235 10.6143 12.2189 12.2189C10.6143 13.8235 8.70936 15.0964 6.61283 15.9648C4.5163 16.8332 2.26926 17.2802 0 17.2802L-1.90735e-06 30Z"/>
</mask>
<path d="M-1.90735e-06 30C3.93966 30 7.84074 29.224 11.4805 27.7164C15.1203 26.2087 18.4274 23.999 21.2132 21.2132C23.999 18.4274 26.2087 15.1203 27.7164 11.4805C29.224 7.84073 30 3.93965 30 -3.8147e-06L17.2802 -1.90735e-06C17.2802 2.26926 16.8332 4.5163 15.9648 6.61283C15.0964 8.70936 13.8235 10.6143 12.2189 12.2189C10.6143 13.8235 8.70936 15.0964 6.61283 15.9648C4.5163 16.8332 2.26926 17.2802 0 17.2802L-1.90735e-06 30Z" fill="#F0F5F9" stroke="#A9B4CB" stroke-width="2" mask="url(#path-1-inside-1_1216_575)"/>
</svg>
