<svg width="16" height="14" viewBox="0 0 16 14" fill="none" xmlns="http://www.w3.org/2000/svg">
<path fill-rule="evenodd" clip-rule="evenodd" d="M8 8C9.30625 8 10.4175 8.83485 10.8293 10.0001L15 10C15.5523 10 16 10.4477 16 11C16 11.5523 15.5523 12 15 12L10.829 12.0009C10.4169 13.1656 9.30588 14 8 14C6.69412 14 5.58312 13.1656 5.17102 12.0009L1 12C0.447715 12 0 11.5523 0 11C0 10.4477 0.447715 10 1 10L5.17067 10.0001C5.58249 8.83485 6.69375 8 8 8ZM13 0C14.6569 0 16 1.34315 16 3C16 4.65685 14.6569 6 13 6C11.6941 6 10.5831 5.16562 10.171 4.0009L1 4C0.447715 4 0 3.55228 0 3C0 2.44772 0.447715 2 1 2L10.1707 2.00009C10.5825 0.83485 11.6937 0 13 0Z" fill="#A9B4CB"/>
</svg>
