<svg width="18" height="12" viewBox="0 0 18 12" fill="none" xmlns="http://www.w3.org/2000/svg">
<path d="M9.00033 3.50008C7.63199 3.50008 6.50033 4.63258 6.50033 6.00008C6.50033 7.36842 7.63199 8.50008 9.00033 8.50008C10.3678 8.50008 11.5003 7.36842 11.5003 6.00008C11.5003 4.63258 10.3678 3.50008 9.00033 3.50008Z" fill="#627698"/>
<path d="M9.00033 0.166748C2.67366 0.166748 0.772257 5.68092 0.754851 5.73675L0.666992 6.00008L0.754022 6.26342C0.772257 6.31925 2.67366 11.8334 9.00033 11.8334C15.327 11.8334 17.2284 6.31925 17.2458 6.26342L17.3337 6.00008L17.2466 5.73675C17.2284 5.68092 15.327 0.166748 9.00033 0.166748ZM9.00033 10.1667C4.56511 10.1667 2.84689 6.96175 2.4308 6.00008C2.84854 5.03508 4.5676 1.83341 9.00033 1.83341C13.4355 1.83341 15.1538 5.03842 15.5698 6.00008C15.1521 6.96508 13.4331 10.1667 9.00033 10.1667Z" fill="#627698"/>
</svg>
