<svg width="22" height="22" viewBox="0 0 22 22" fill="none" xmlns="http://www.w3.org/2000/svg">
<path d="M10.9999 0.0908203C4.97352 0.0908203 0.0908203 4.97352 0.0908203 10.9999C0.0908203 17.0263 4.97352 21.909 10.9999 21.909C17.0263 21.909 21.909 17.0263 21.909 10.9999C21.909 4.97352 17.0263 0.0908203 10.9999 0.0908203ZM5.01751 9.56589C5.16267 7.71399 6.43393 6.42513 7.48085 6.42513C8.52777 6.42513 9.79903 7.71399 9.94419 9.56589C9.97498 9.94419 9.71105 10.2359 9.49991 10.4999H8.99991C8.49991 10.4999 8.04096 10.4999 7.49991 10.4999C6.95885 10.4999 6.99991 10.4999 5.99991 10.4999H5.49991C5.01751 9.99988 4.98671 9.93979 5.01751 9.56589ZM16.0498 14.9677C14.7961 16.4721 12.9574 17.3342 10.9999 17.3342C9.04243 17.3342 7.20372 16.4721 5.95006 14.9677C5.35622 14.2506 6.43393 13.3533 7.03217 14.0659C8.01751 15.2492 9.46032 15.9222 10.9999 15.9222C12.5395 15.9222 13.9823 15.2448 14.9677 14.0659C15.5659 13.3533 16.6436 14.255 16.0498 14.9677ZM16.4999 10.4999H15.9999C15.4999 10.4999 15.041 10.4999 14.4999 10.4999C13.9589 10.4999 13.4999 10.4999 12.9999 10.4999H12.4999C12.2844 10.2359 12.0292 9.93979 12.06 9.56589C12.2052 7.71399 13.4764 6.42513 14.5234 6.42513C15.5703 6.42513 16.8416 7.71399 16.9867 9.56589C17.0131 9.94419 16.9999 9.99988 16.4999 10.4999Z" fill="#52616B"/>
</svg>
