<svg width="32" height="32" viewBox="0 0 32 32" fill="none" xmlns="http://www.w3.org/2000/svg">
<circle cx="16" cy="16" r="16" fill="#FFD565"/>
<path fill-rule="evenodd" clip-rule="evenodd" d="M15.5547 21.9827L12.0922 23.885C11.6245 24.1419 11.046 23.954 10.8002 23.4652C10.7022 23.2706 10.6685 23.0477 10.704 22.831L11.3653 18.8019C11.4185 18.4775 11.3156 18.1466 11.0902 17.9169L8.28893 15.0635C7.91055 14.6781 7.90281 14.0451 8.27163 13.6497C8.4185 13.4922 8.61095 13.3897 8.81917 13.3581L12.6904 12.7703C13.002 12.723 13.2714 12.5184 13.4107 12.2233L15.142 8.55755C15.3758 8.06239 15.9495 7.85909 16.4234 8.10347C16.612 8.20078 16.7648 8.36038 16.8579 8.55755L18.5891 12.2233C18.7285 12.5184 18.9979 12.723 19.3095 12.7703L23.1807 13.3581C23.7036 13.4375 24.0659 13.9449 23.9899 14.4913C23.9597 14.7089 23.8616 14.91 23.7109 15.0635L20.9097 17.9169C20.6842 18.1466 20.5813 18.4775 20.6346 18.8019L21.2958 22.831C21.3852 23.3752 21.0354 23.8921 20.5146 23.9854C20.3072 24.0226 20.0939 23.9873 19.9077 23.885L16.4452 21.9827C16.1664 21.8295 15.8334 21.8295 15.5547 21.9827Z" fill="#FFFBE5"/>
</svg>
