<svg width="30" height="30" viewBox="0 0 30 30" fill="none" xmlns="http://www.w3.org/2000/svg">
<circle cx="15" cy="15" r="15" fill="#DBF0FF"/>
<path fill-rule="evenodd" clip-rule="evenodd" d="M12.3217 18.3355H17.6789C20.1444 18.3355 22.1431 20.3343 22.1431 22.7998C22.1431 23.2929 21.7434 23.6927 21.2503 23.6927C20.7924 23.6927 20.415 23.348 20.3634 22.904L20.3529 22.6424C20.2744 21.2884 19.1902 20.2043 17.8362 20.1258L17.6789 20.1213H12.3217C10.8424 20.1213 9.64314 21.3205 9.64314 22.7998C9.64314 23.2929 9.24339 23.6927 8.75028 23.6927C8.25717 23.6927 7.85742 23.2929 7.85742 22.7998C7.85742 20.3992 9.75234 18.4411 12.1281 18.3397L12.3217 18.3355H17.6789H12.3217ZM15.0003 9.40698C17.4659 9.40698 19.4646 11.4057 19.4646 13.8713C19.4646 16.3368 17.4659 18.3356 15.0003 18.3356C12.5348 18.3356 10.5361 16.3368 10.5361 13.8713C10.5361 11.4057 12.5348 9.40698 15.0003 9.40698ZM15.0003 11.1927C13.5209 11.1927 12.3217 12.3919 12.3217 13.8712C12.3217 15.3506 13.5209 16.5498 15.0003 16.5498C16.4796 16.5498 17.6789 15.3506 17.6789 13.8712C17.6789 12.3919 16.4796 11.1927 15.0003 11.1927Z" fill="#52616B"/>
<path d="M8 10.9546L15.65 7.47735L23.3 10.9546L15.65 14.4319L8 10.9546Z" fill="#52616B"/>
</svg>
