<svg width="10" height="10" viewBox="0 0 10 10" fill="none" xmlns="http://www.w3.org/2000/svg">
<path fill-rule="evenodd" clip-rule="evenodd" d="M5.98978 4.99998L8.99488 1.99488C9.26858 1.72118 9.26858 1.27878 8.99488 1.00508C8.72118 0.73138 8.27878 0.73138 8.00508 1.00508L4.99998 4.01018L1.99488 1.00508C1.72118 0.73138 1.27878 0.73138 1.00508 1.00508C0.73138 1.27878 0.73138 1.72118 1.00508 1.99488L4.01018 4.99998L1.00508 8.00508C0.73138 8.27878 0.73138 8.72118 1.00508 8.99488C1.14158 9.13138 1.32078 9.19998 1.49998 9.19998C1.67918 9.19998 1.85838 9.13138 1.99488 8.99488L4.99998 5.98978L8.00508 8.99488C8.14158 9.13138 8.32078 9.19998 8.49998 9.19998C8.67918 9.19998 8.85838 9.13138 8.99488 8.99488C9.26858 8.72118 9.26858 8.27878 8.99488 8.00508L5.98978 4.99998Z" fill="#52616B"/>
</svg>
