<svg width="20" height="20" viewBox="0 0 20 20" fill="none" xmlns="http://www.w3.org/2000/svg">
<path d="M13 14.0001C12.1478 14.0001 11.7026 13.0145 12.2168 12.3775L12.2929 12.2929L13.5683 11.0169C12.5736 10.4078 11.1361 10.0001 9.5 10.0001C6.48051 10.0001 4.13725 11.389 4.00582 12.8692L4 13.0001C4 13.5523 3.55229 14.0001 3 14.0001C2.44771 14.0001 2 13.5523 2 13.0001C2 10.11 5.42859 8.00005 9.5 8.00005C11.6541 8.00005 13.6282 8.59065 15.0098 9.57492L16.2929 8.29294C16.8955 7.69037 17.9072 8.07238 17.994 8.88642L18 9.00005V13.0001C18 13.5129 17.614 13.9356 17.1166 13.9933L17 14.0001H13Z" fill="#627698"/>
</svg>
