<svg width="20" height="20" viewBox="0 0 20 20" fill="none" xmlns="http://www.w3.org/2000/svg">
<path d="M7 14.0001C7.85217 14.0001 8.29743 13.0145 7.78323 12.3775L7.70711 12.2929L6.43168 11.0169C7.42641 10.4078 8.86394 10.0001 10.5 10.0001C13.5195 10.0001 15.8627 11.389 15.9942 12.8692L16 13.0001C16 13.5523 16.4477 14.0001 17 14.0001C17.5523 14.0001 18 13.5523 18 13.0001C18 10.11 14.5714 8.00005 10.5 8.00005C8.34594 8.00005 6.37181 8.59065 4.99017 9.57492L3.70711 8.29294C3.10453 7.69037 2.09282 8.07238 2.00598 8.88642L2 9.00005V13.0001C2 13.5129 2.38604 13.9356 2.88338 13.9933L3 14.0001H7Z" fill="#5939D6"/>
</svg>
