<svg width="26" height="21" viewBox="0 0 26 21" fill="none" xmlns="http://www.w3.org/2000/svg">
<path d="M25.2027 3.01452C24.3048 3.41277 23.3397 3.6819 22.3271 3.80292C23.3606 3.18326 24.1547 2.20206 24.5285 1.03282C23.5609 1.60666 22.4895 2.02332 21.3489 2.24781C20.4357 1.27472 19.1345 0.666748 17.6944 0.666748C14.9292 0.666748 12.6873 2.90846 12.6873 5.67356C12.6873 6.06596 12.7316 6.44812 12.817 6.81461C8.65572 6.60578 4.96633 4.61245 2.49689 1.58318C2.06588 2.32266 1.81896 3.18273 1.81896 4.10035C1.81896 5.83746 2.70287 7.36998 4.04639 8.26793C3.22571 8.2418 2.45357 8.01663 1.77857 7.64162C1.7781 7.66254 1.7781 7.68343 1.7781 7.70455C1.7781 10.1305 3.504 12.1541 5.79447 12.6141C5.37436 12.7286 4.93202 12.7898 4.47538 12.7898C4.15275 12.7898 3.83909 12.7583 3.53332 12.7C4.1705 14.689 6.01957 16.1367 8.21058 16.177C6.49701 17.5201 4.3381 18.3205 1.99224 18.3205C1.58809 18.3205 1.18955 18.2967 0.797852 18.2504C3.01365 19.671 5.64551 20.5001 8.47303 20.5001C17.6826 20.5001 22.7188 12.8707 22.7188 6.25412C22.7188 6.03708 22.7139 5.82114 22.7043 5.60636C23.6826 4.90042 24.5315 4.0186 25.2027 3.01452Z" fill="#627698"/>
</svg>
