<svg width="16" height="16" viewBox="0 0 16 16" fill="none" xmlns="http://www.w3.org/2000/svg">
<path fill-rule="evenodd" clip-rule="evenodd" d="M5 9H11C13.7614 9 16 11.2386 16 14C16 14.5523 15.5523 15 15 15C14.4872 15 14.5 15 14 15.0051C12.5118 15.0051 12.5 15 11.1763 15.0051L11 15H5C3.34315 15 4.5 15 2 15C1.5 15.0051 1.55228 15 1 15C0.447715 15 0 14.5523 0 14C0 11.3112 2.12231 9.11818 4.78311 9.00462L5 9ZM8 0C10.2091 0 12 1.79086 12 4C12 6.20914 10.2091 8 8 8C5.79086 8 4 6.20914 4 4C4 1.79086 5.79086 0 8 0Z" fill="#52616B"/>
</svg>
