<svg width="28" height="16" viewBox="0 0 28 16" fill="none" xmlns="http://www.w3.org/2000/svg">
<path d="M25.0328 5.83878C27.9301 1.91623 27.2876 1.84274 28 0.617188H22.4477C22.4477 0.617188 22.0532 1.98715 21.9327 2.23239C20.8663 4.40131 18.4743 7.65564 17.0277 7.98825C15.6032 8.31595 15.7923 4.94968 15.8801 3.49149C15.9628 2.13989 15.9487 1.66693 15.9089 1.43344C15.8508 1.09229 15.5646 0.843414 15.2211 0.800049C14.5129 0.710327 13.228 0.583435 11.789 0.650085L10.5017 0.69281C11.0093 1.82822 11.3521 1.48022 11.5391 2.79379C11.7501 4.33167 11.667 8.0737 10.1524 8.0737C7.7244 8.0737 4.99899 0.781464 4.91226 0.617188H0L0.449463 1.74191C4.07187 10.8102 8.60239 15.0103 14.8011 15.3595L15.6077 15.3828L15.6654 14.5995C15.7526 13.3897 16.3595 11.6483 17.4359 11.6483C19.0263 11.6483 19.4858 12.1114 20.5347 13.4074C21.5432 14.6501 22.2382 15.3828 23.8655 15.3828H28L27.4104 14.1972C26.4897 12.3487 24.6429 10.7641 23.9217 9.84485C23.6605 9.49878 23.4033 8.95169 23.6694 8.28989C23.8871 7.71353 24.5352 6.51147 25.0328 5.83878Z" fill="#627698"/>
</svg>
