<svg width="16" height="16" viewBox="0 0 16 16" fill="none" xmlns="http://www.w3.org/2000/svg">
<path fill-rule="evenodd" clip-rule="evenodd" d="M2.22266 0.222168C1.11809 0.222168 0.222656 1.1176 0.222656 2.22217V13.037C0.222656 14.1416 1.11809 15.037 2.22266 15.037H13.0375C14.142 15.037 15.0375 14.1416 15.0375 13.037V2.22217C15.0375 1.1176 14.142 0.222168 13.0375 0.222168H2.22266ZM8.56026 5.92018C7.73184 5.92018 7.06026 6.59175 7.06026 7.42018V7.83898C7.06026 8.66741 7.73184 9.33898 8.56027 9.33898H11.2583C12.0867 9.33898 12.7583 8.6674 12.7583 7.83898V7.42017C12.7583 6.59175 12.0867 5.92018 11.2583 5.92018H8.56026Z" fill="#A9B4CB"/>
</svg>
